<?xml version="1.0" encoding="UTF-8" standalone="no"?>
<!-- Created with Inkscape (http://www.inkscape.org/) -->

<svg
   xmlns:dc="http://purl.org/dc/elements/1.1/"
   xmlns:cc="http://creativecommons.org/ns#"
   xmlns:rdf="http://www.w3.org/1999/02/22-rdf-syntax-ns#"
   xmlns:svg="http://www.w3.org/2000/svg"
   xmlns="http://www.w3.org/2000/svg"
   xmlns:sodipodi="http://sodipodi.sourceforge.net/DTD/sodipodi-0.dtd"
   xmlns:inkscape="http://www.inkscape.org/namespaces/inkscape"
   width="210mm"
   height="297mm"
   viewBox="0 0 744.09448819 1052.3622047"
   id="svg2"
   version="1.1"
   inkscape:version="0.91 r13725"
   sodipodi:docname="latch.svg">
  <defs
     id="defs4" />
  <sodipodi:namedview
     id="base"
     pagecolor="#ffffff"
     bordercolor="#666666"
     borderopacity="1.0"
     inkscape:pageopacity="0.0"
     inkscape:pageshadow="2"
     inkscape:zoom="0.98994949"
     inkscape:cx="323.33991"
     inkscape:cy="648.1509"
     inkscape:document-units="px"
     inkscape:current-layer="layer2"
     showgrid="false"
     inkscape:window-width="1920"
     inkscape:window-height="1017"
     inkscape:window-x="-8"
     inkscape:window-y="-8"
     inkscape:window-maximized="1" />
  <metadata
     id="metadata7">
    <rdf:RDF>
      <cc:Work
         rdf:about="">
        <dc:format>image/svg+xml</dc:format>
        <dc:type
           rdf:resource="http://purl.org/dc/dcmitype/StillImage" />
        <dc:title></dc:title>
      </cc:Work>
    </rdf:RDF>
  </metadata>
  <g
     inkscape:label="Layer 1"
     inkscape:groupmode="layer"
     id="layer1"
     sodipodi:insensitive="true">
    <rect
       style="opacity:0.98999999;fill:#000000;fill-opacity:1;fill-rule:nonzero;stroke:#9e0000;stroke-width:5;stroke-miterlimit:4;stroke-dasharray:none;stroke-opacity:1"
       id="rect3356"
       width="1297.1428"
       height="1368.5714"
       x="-114.28571"
       y="-110.49494" />
  </g>
  <g
     inkscape:groupmode="layer"
     id="layer2"
     inkscape:label="Layer 2"
     style="opacity:0.98000004">
    <path
       sodipodi:type="star"
       style="opacity:0.98999999;fill:#009800;fill-opacity:1;fill-rule:nonzero;stroke:none;stroke-width:5;stroke-miterlimit:4;stroke-dasharray:none;stroke-opacity:1"
       id="path3338-8-6"
       sodipodi:sides="24"
       sodipodi:cx="351.42856"
       sodipodi:cy="369.50507"
       sodipodi:r1="362.86841"
       sodipodi:r2="335.40887"
       sodipodi:arg1="0.65137496"
       sodipodi:arg2="0.78227465"
       inkscape:flatsided="false"
       inkscape:rounded="0"
       inkscape:randomized="0"
       d="m 640,589.50508 -50.66191,16.42792 -16.11112,50.76354 -53.1875,2.75589 -28.70072,44.86395 -52.08846,-11.10395 -39.33441,35.90696 -47.43967,-24.20709 -47.28753,24.50297 -39.55795,-35.66054 -52.01808,11.42914 -28.98042,-44.68379 -53.20368,-2.42357 L 115.00063,607.4146 64.237082,591.30348 61.481196,538.11598 16.61724,509.41526 27.721197,457.3268 -8.1857642,417.99239 16.02132,370.55272 -8.4816465,323.26519 27.178892,283.70724 15.749757,231.68916 60.433543,202.70874 62.857116,149.50506 113.51902,133.07714 129.63014,82.31359 182.81765,79.557703 211.51836,34.693747 263.60682,45.797704 302.94123,9.8907434 350.38091,34.097828 397.66843,9.5948611 437.22638,45.2554 l 52.01808,-11.429135 28.98042,44.683786 53.20369,2.423572 16.42792,50.661907 50.76354,16.11112 2.75589,53.1875 44.86396,28.70072 -11.10396,52.08846 35.90696,39.33441 -24.20708,47.43967 24.50296,47.28753 -35.66054,39.55795 11.42914,52.01808 -44.68379,28.98042 z"
       transform="matrix(0.26489367,0.51526914,-0.40233281,0.20683446,545.50231,54.174756)" />
    <path
       sodipodi:type="star"
       style="opacity:0.98999999;fill:#009800;fill-opacity:1;fill-rule:nonzero;stroke:none;stroke-width:5;stroke-miterlimit:4;stroke-dasharray:none;stroke-opacity:1"
       id="path3338-3-3"
       sodipodi:sides="24"
       sodipodi:cx="351.42856"
       sodipodi:cy="369.50507"
       sodipodi:r1="362.86841"
       sodipodi:r2="335.40887"
       sodipodi:arg1="0.65137496"
       sodipodi:arg2="0.78227465"
       inkscape:flatsided="false"
       inkscape:rounded="0"
       inkscape:randomized="0"
       d="m 640,589.50508 -50.66191,16.42792 -16.11112,50.76354 -53.1875,2.75589 -28.70072,44.86395 -52.08846,-11.10395 -39.33441,35.90696 -47.43967,-24.20709 -47.28753,24.50297 -39.55795,-35.66054 -52.01808,11.42914 -28.98042,-44.68379 -53.20368,-2.42357 L 115.00063,607.4146 64.237082,591.30348 61.481196,538.11598 16.61724,509.41526 27.721197,457.3268 -8.1857642,417.99239 16.02132,370.55272 -8.4816465,323.26519 27.178892,283.70724 15.749757,231.68916 60.433543,202.70874 62.857116,149.50506 113.51902,133.07714 129.63014,82.31359 182.81765,79.557703 211.51836,34.693747 263.60682,45.797704 302.94123,9.8907434 350.38091,34.097828 397.66843,9.5948611 437.22638,45.2554 l 52.01808,-11.429135 28.98042,44.683786 53.20369,2.423572 16.42792,50.661907 50.76354,16.11112 2.75589,53.1875 44.86396,28.70072 -11.10396,52.08846 35.90696,39.33441 -24.20708,47.43967 24.50296,47.28753 -35.66054,39.55795 11.42914,52.01808 -44.68379,28.98042 z"
       transform="matrix(0.26489367,0.51526914,-0.40233281,0.20683446,674.68391,292.95967)" />
    <path
       sodipodi:type="star"
       style="opacity:0.98999999;fill:#00989e;fill-opacity:1;fill-rule:nonzero;stroke:none;stroke-width:5;stroke-miterlimit:4;stroke-dasharray:none;stroke-opacity:1"
       id="path3338-8"
       sodipodi:sides="24"
       sodipodi:cx="351.42856"
       sodipodi:cy="369.50507"
       sodipodi:r1="362.86841"
       sodipodi:r2="335.40887"
       sodipodi:arg1="0.65137496"
       sodipodi:arg2="0.78227465"
       inkscape:flatsided="false"
       inkscape:rounded="0"
       inkscape:randomized="0"
       d="m 640,589.50508 -50.66191,16.42792 -16.11112,50.76354 -53.1875,2.75589 -28.70072,44.86395 -52.08846,-11.10395 -39.33441,35.90696 -47.43967,-24.20709 -47.28753,24.50297 -39.55795,-35.66054 -52.01808,11.42914 -28.98042,-44.68379 -53.20368,-2.42357 L 115.00063,607.4146 64.237082,591.30348 61.481196,538.11598 16.61724,509.41526 27.721197,457.3268 -8.1857642,417.99239 16.02132,370.55272 -8.4816465,323.26519 27.178892,283.70724 15.749757,231.68916 60.433543,202.70874 62.857116,149.50506 113.51902,133.07714 129.63014,82.31359 182.81765,79.557703 211.51836,34.693747 263.60682,45.797704 302.94123,9.8907434 350.38091,34.097828 397.66843,9.5948611 437.22638,45.2554 l 52.01808,-11.429135 28.98042,44.683786 53.20369,2.423572 16.42792,50.661907 50.76354,16.11112 2.75589,53.1875 44.86396,28.70072 -11.10396,52.08846 35.90696,39.33441 -24.20708,47.43967 24.50296,47.28753 -35.66054,39.55795 11.42914,52.01808 -44.68379,28.98042 z"
       transform="matrix(0.26139632,0.50846612,-0.39263592,0.2018494,543.64703,49.213249)" />
    <path
       sodipodi:type="star"
       style="opacity:0.98999999;fill:#00989e;fill-opacity:1;fill-rule:nonzero;stroke:none;stroke-width:5;stroke-miterlimit:4;stroke-dasharray:none;stroke-opacity:1"
       id="path3338-3"
       sodipodi:sides="24"
       sodipodi:cx="351.42856"
       sodipodi:cy="369.50507"
       sodipodi:r1="362.86841"
       sodipodi:r2="335.40887"
       sodipodi:arg1="0.65137496"
       sodipodi:arg2="0.78227465"
       inkscape:flatsided="false"
       inkscape:rounded="0"
       inkscape:randomized="0"
       d="m 640,589.50508 -50.66191,16.42792 -16.11112,50.76354 -53.1875,2.75589 -28.70072,44.86395 -52.08846,-11.10395 -39.33441,35.90696 -47.43967,-24.20709 -47.28753,24.50297 -39.55795,-35.66054 -52.01808,11.42914 -28.98042,-44.68379 -53.20368,-2.42357 L 115.00063,607.4146 64.237082,591.30348 61.481196,538.11598 16.61724,509.41526 27.721197,457.3268 -8.1857642,417.99239 16.02132,370.55272 -8.4816465,323.26519 27.178892,283.70724 15.749757,231.68916 60.433543,202.70874 62.857116,149.50506 113.51902,133.07714 129.63014,82.31359 182.81765,79.557703 211.51836,34.693747 263.60682,45.797704 302.94123,9.8907434 350.38091,34.097828 397.66843,9.5948611 437.22638,45.2554 l 52.01808,-11.429135 28.98042,44.683786 53.20369,2.423572 16.42792,50.661907 50.76354,16.11112 2.75589,53.1875 44.86396,28.70072 -11.10396,52.08846 35.90696,39.33441 -24.20708,47.43967 24.50296,47.28753 -35.66054,39.55795 11.42914,52.01808 -44.68379,28.98042 z"
       transform="matrix(0.26139632,0.50846612,-0.39263592,0.2018494,671.06769,284.87399)" />
    <path
       sodipodi:type="star"
       style="opacity:0.98999999;fill:#00009e;fill-opacity:1;fill-rule:nonzero;stroke:none;stroke-width:5;stroke-miterlimit:4;stroke-dasharray:none;stroke-opacity:1"
       id="path3338-8-0"
       sodipodi:sides="24"
       sodipodi:cx="351.42856"
       sodipodi:cy="369.50507"
       sodipodi:r1="362.86841"
       sodipodi:r2="335.40887"
       sodipodi:arg1="0.65137496"
       sodipodi:arg2="0.78227465"
       inkscape:flatsided="false"
       inkscape:rounded="0"
       inkscape:randomized="0"
       d="m 640,589.50508 -50.66191,16.42792 -16.11112,50.76354 -53.1875,2.75589 -28.70072,44.86395 -52.08846,-11.10395 -39.33441,35.90696 -47.43967,-24.20709 -47.28753,24.50297 -39.55795,-35.66054 -52.01808,11.42914 -28.98042,-44.68379 -53.20368,-2.42357 L 115.00063,607.4146 64.237082,591.30348 61.481196,538.11598 16.61724,509.41526 27.721197,457.3268 -8.1857642,417.99239 16.02132,370.55272 -8.4816465,323.26519 27.178892,283.70724 15.749757,231.68916 60.433543,202.70874 62.857116,149.50506 113.51902,133.07714 129.63014,82.31359 182.81765,79.557703 211.51836,34.693747 263.60682,45.797704 302.94123,9.8907434 350.38091,34.097828 397.66843,9.5948611 437.22638,45.2554 l 52.01808,-11.429135 28.98042,44.683786 53.20369,2.423572 16.42792,50.661907 50.76354,16.11112 2.75589,53.1875 44.86396,28.70072 -11.10396,52.08846 35.90696,39.33441 -24.20708,47.43967 24.50296,47.28753 -35.66054,39.55795 11.42914,52.01808 -44.68379,28.98042 z"
       transform="matrix(0.2561503,0.4982616,-0.39263592,0.2018494,539.45754,47.312988)" />
    <path
       sodipodi:type="star"
       style="opacity:0.98999999;fill:#00009e;fill-opacity:1;fill-rule:nonzero;stroke:none;stroke-width:5;stroke-miterlimit:4;stroke-dasharray:none;stroke-opacity:1"
       id="path3338-3-1"
       sodipodi:sides="24"
       sodipodi:cx="351.42856"
       sodipodi:cy="369.50507"
       sodipodi:r1="362.86841"
       sodipodi:r2="335.40887"
       sodipodi:arg1="0.65137496"
       sodipodi:arg2="0.78227465"
       inkscape:flatsided="false"
       inkscape:rounded="0"
       inkscape:randomized="0"
       d="m 640,589.50508 -50.66191,16.42792 -16.11112,50.76354 -53.1875,2.75589 -28.70072,44.86395 -52.08846,-11.10395 -39.33441,35.90696 -47.43967,-24.20709 -47.28753,24.50297 -39.55795,-35.66054 -52.01808,11.42914 -28.98042,-44.68379 -53.20368,-2.42357 L 115.00063,607.4146 64.237082,591.30348 61.481196,538.11598 16.61724,509.41526 27.721197,457.3268 -8.1857642,417.99239 16.02132,370.55272 -8.4816465,323.26519 27.178892,283.70724 15.749757,231.68916 60.433543,202.70874 62.857116,149.50506 113.51902,133.07714 129.63014,82.31359 182.81765,79.557703 211.51836,34.693747 263.60682,45.797704 302.94123,9.8907434 350.38091,34.097828 397.66843,9.5948611 437.22638,45.2554 l 52.01808,-11.429135 28.98042,44.683786 53.20369,2.423572 16.42792,50.661907 50.76354,16.11112 2.75589,53.1875 44.86396,28.70072 -11.10396,52.08846 35.90696,39.33441 -24.20708,47.43967 24.50296,47.28753 -35.66054,39.55795 11.42914,52.01808 -44.68379,28.98042 z"
       transform="matrix(0.2561503,0.4982616,-0.39263592,0.2018494,664.42049,278.19303)" />
    <path
       sodipodi:type="star"
       style="opacity:0.98999999;fill:#009800;fill-opacity:1;fill-rule:nonzero;stroke:none;stroke-width:5;stroke-miterlimit:4;stroke-dasharray:none;stroke-opacity:1"
       id="path3338-8-6-5"
       sodipodi:sides="24"
       sodipodi:cx="351.42856"
       sodipodi:cy="369.50507"
       sodipodi:r1="362.86841"
       sodipodi:r2="335.40887"
       sodipodi:arg1="0.65137496"
       sodipodi:arg2="0.78227465"
       inkscape:flatsided="false"
       inkscape:rounded="0"
       inkscape:randomized="0"
       d="m 640,589.50508 -50.66191,16.42792 -16.11112,50.76354 -53.1875,2.75589 -28.70072,44.86395 -52.08846,-11.10395 -39.33441,35.90696 -47.43967,-24.20709 -47.28753,24.50297 -39.55795,-35.66054 -52.01808,11.42914 -28.98042,-44.68379 -53.20368,-2.42357 L 115.00063,607.4146 64.237082,591.30348 61.481196,538.11598 16.61724,509.41526 27.721197,457.3268 -8.1857642,417.99239 16.02132,370.55272 -8.4816465,323.26519 27.178892,283.70724 15.749757,231.68916 60.433543,202.70874 62.857116,149.50506 113.51902,133.07714 129.63014,82.31359 182.81765,79.557703 211.51836,34.693747 263.60682,45.797704 302.94123,9.8907434 350.38091,34.097828 397.66843,9.5948611 437.22638,45.2554 l 52.01808,-11.429135 28.98042,44.683786 53.20369,2.423572 16.42792,50.661907 50.76354,16.11112 2.75589,53.1875 44.86396,28.70072 -11.10396,52.08846 35.90696,39.33441 -24.20708,47.43967 24.50296,47.28753 -35.66054,39.55795 11.42914,52.01808 -44.68379,28.98042 z"
       transform="matrix(0.23341189,0.45403103,-0.37462812,0.19259181,553.99351,88.221656)" />
    <path
       sodipodi:type="star"
       style="opacity:0.98999999;fill:#009800;fill-opacity:1;fill-rule:nonzero;stroke:none;stroke-width:5;stroke-miterlimit:4;stroke-dasharray:none;stroke-opacity:1"
       id="path3338-3-3-8"
       sodipodi:sides="24"
       sodipodi:cx="351.42856"
       sodipodi:cy="369.50507"
       sodipodi:r1="362.86841"
       sodipodi:r2="335.40887"
       sodipodi:arg1="0.65137496"
       sodipodi:arg2="0.78227465"
       inkscape:flatsided="false"
       inkscape:rounded="0"
       inkscape:randomized="0"
       d="m 640,589.50508 -50.66191,16.42792 -16.11112,50.76354 -53.1875,2.75589 -28.70072,44.86395 -52.08846,-11.10395 -39.33441,35.90696 -47.43967,-24.20709 -47.28753,24.50297 -39.55795,-35.66054 -52.01808,11.42914 -28.98042,-44.68379 -53.20368,-2.42357 L 115.00063,607.4146 64.237082,591.30348 61.481196,538.11598 16.61724,509.41526 27.721197,457.3268 -8.1857642,417.99239 16.02132,370.55272 -8.4816465,323.26519 27.178892,283.70724 15.749757,231.68916 60.433543,202.70874 62.857116,149.50506 113.51902,133.07714 129.63014,82.31359 182.81765,79.557703 211.51836,34.693747 263.60682,45.797704 302.94123,9.8907434 350.38091,34.097828 397.66843,9.5948611 437.22638,45.2554 l 52.01808,-11.429135 28.98042,44.683786 53.20369,2.423572 16.42792,50.661907 50.76354,16.11112 2.75589,53.1875 44.86396,28.70072 -11.10396,52.08846 35.90696,39.33441 -24.20708,47.43967 24.50296,47.28753 -35.66054,39.55795 11.42914,52.01808 -44.68379,28.98042 z"
       transform="matrix(0.23341189,0.45403103,-0.37462812,0.19259181,668.07624,298.49718)" />
    <path
       sodipodi:type="star"
       style="opacity:0.98999999;fill:#00989e;fill-opacity:1;fill-rule:nonzero;stroke:none;stroke-width:5;stroke-miterlimit:4;stroke-dasharray:none;stroke-opacity:1"
       id="path3338-8-4"
       sodipodi:sides="24"
       sodipodi:cx="351.42856"
       sodipodi:cy="369.50507"
       sodipodi:r1="362.86841"
       sodipodi:r2="335.40887"
       sodipodi:arg1="0.65137496"
       sodipodi:arg2="0.78227465"
       inkscape:flatsided="false"
       inkscape:rounded="0"
       inkscape:randomized="0"
       d="m 640,589.50508 -50.66191,16.42792 -16.11112,50.76354 -53.1875,2.75589 -28.70072,44.86395 -52.08846,-11.10395 -39.33441,35.90696 -47.43967,-24.20709 -47.28753,24.50297 -39.55795,-35.66054 -52.01808,11.42914 -28.98042,-44.68379 -53.20368,-2.42357 L 115.00063,607.4146 64.237082,591.30348 61.481196,538.11598 16.61724,509.41526 27.721197,457.3268 -8.1857642,417.99239 16.02132,370.55272 -8.4816465,323.26519 27.178892,283.70724 15.749757,231.68916 60.433543,202.70874 62.857116,149.50506 113.51902,133.07714 129.63014,82.31359 182.81765,79.557703 211.51836,34.693747 263.60682,45.797704 302.94123,9.8907434 350.38091,34.097828 397.66843,9.5948611 437.22638,45.2554 l 52.01808,-11.429135 28.98042,44.683786 53.20369,2.423572 16.42792,50.661907 50.76354,16.11112 2.75589,53.1875 44.86396,28.70072 -11.10396,52.08846 35.90696,39.33441 -24.20708,47.43967 24.50296,47.28753 -35.66054,39.55795 11.42914,52.01808 -44.68379,28.98042 z"
       transform="matrix(0.23033019,0.44803653,-0.36559894,0.18795002,552.38612,83.835727)" />
    <path
       sodipodi:type="star"
       style="opacity:0.98999999;fill:#00989e;fill-opacity:1;fill-rule:nonzero;stroke:none;stroke-width:5;stroke-miterlimit:4;stroke-dasharray:none;stroke-opacity:1"
       id="path3338-3-4"
       sodipodi:sides="24"
       sodipodi:cx="351.42856"
       sodipodi:cy="369.50507"
       sodipodi:r1="362.86841"
       sodipodi:r2="335.40887"
       sodipodi:arg1="0.65137496"
       sodipodi:arg2="0.78227465"
       inkscape:flatsided="false"
       inkscape:rounded="0"
       inkscape:randomized="0"
       d="m 640,589.50508 -50.66191,16.42792 -16.11112,50.76354 -53.1875,2.75589 -28.70072,44.86395 -52.08846,-11.10395 -39.33441,35.90696 -47.43967,-24.20709 -47.28753,24.50297 -39.55795,-35.66054 -52.01808,11.42914 -28.98042,-44.68379 -53.20368,-2.42357 L 115.00063,607.4146 64.237082,591.30348 61.481196,538.11598 16.61724,509.41526 27.721197,457.3268 -8.1857642,417.99239 16.02132,370.55272 -8.4816465,323.26519 27.178892,283.70724 15.749757,231.68916 60.433543,202.70874 62.857116,149.50506 113.51902,133.07714 129.63014,82.31359 182.81765,79.557703 211.51836,34.693747 263.60682,45.797704 302.94123,9.8907434 350.38091,34.097828 397.66843,9.5948611 437.22638,45.2554 l 52.01808,-11.429135 28.98042,44.683786 53.20369,2.423572 16.42792,50.661907 50.76354,16.11112 2.75589,53.1875 44.86396,28.70072 -11.10396,52.08846 35.90696,39.33441 -24.20708,47.43967 24.50296,47.28753 -35.66054,39.55795 11.42914,52.01808 -44.68379,28.98042 z"
       transform="matrix(0.23033019,0.44803653,-0.36559894,0.18795002,664.91121,291.36146)" />
    <path
       sodipodi:type="star"
       style="opacity:0.98999999;fill:#00009e;fill-opacity:1;fill-rule:nonzero;stroke:none;stroke-width:5;stroke-miterlimit:4;stroke-dasharray:none;stroke-opacity:1"
       id="path3338-8-0-8"
       sodipodi:sides="24"
       sodipodi:cx="351.42856"
       sodipodi:cy="369.50507"
       sodipodi:r1="362.86841"
       sodipodi:r2="335.40887"
       sodipodi:arg1="0.65137496"
       sodipodi:arg2="0.78227465"
       inkscape:flatsided="false"
       inkscape:rounded="0"
       inkscape:randomized="0"
       d="m 640,589.50508 -50.66191,16.42792 -16.11112,50.76354 -53.1875,2.75589 -28.70072,44.86395 -52.08846,-11.10395 -39.33441,35.90696 -47.43967,-24.20709 -47.28753,24.50297 -39.55795,-35.66054 -52.01808,11.42914 -28.98042,-44.68379 -53.20368,-2.42357 L 115.00063,607.4146 64.237082,591.30348 61.481196,538.11598 16.61724,509.41526 27.721197,457.3268 -8.1857642,417.99239 16.02132,370.55272 -8.4816465,323.26519 27.178892,283.70724 15.749757,231.68916 60.433543,202.70874 62.857116,149.50506 113.51902,133.07714 129.63014,82.31359 182.81765,79.557703 211.51836,34.693747 263.60682,45.797704 302.94123,9.8907434 350.38091,34.097828 397.66843,9.5948611 437.22638,45.2554 l 52.01808,-11.429135 28.98042,44.683786 53.20369,2.423572 16.42792,50.661907 50.76354,16.11112 2.75589,53.1875 44.86396,28.70072 -11.10396,52.08846 35.90696,39.33441 -24.20708,47.43967 24.50296,47.28753 -35.66054,39.55795 11.42914,52.01808 -44.68379,28.98042 z"
       transform="matrix(0.22570765,0.43904479,-0.36559894,0.18795002,548.56756,82.226577)" />
    <path
       sodipodi:type="star"
       style="opacity:0.98999999;fill:#00009e;fill-opacity:1;fill-rule:nonzero;stroke:none;stroke-width:5;stroke-miterlimit:4;stroke-dasharray:none;stroke-opacity:1"
       id="path3338-3-1-0"
       sodipodi:sides="24"
       sodipodi:cx="351.42856"
       sodipodi:cy="369.50507"
       sodipodi:r1="362.86841"
       sodipodi:r2="335.40887"
       sodipodi:arg1="0.65137496"
       sodipodi:arg2="0.78227465"
       inkscape:flatsided="false"
       inkscape:rounded="0"
       inkscape:randomized="0"
       d="m 640,589.50508 -50.66191,16.42792 -16.11112,50.76354 -53.1875,2.75589 -28.70072,44.86395 -52.08846,-11.10395 -39.33441,35.90696 -47.43967,-24.20709 -47.28753,24.50297 -39.55795,-35.66054 -52.01808,11.42914 -28.98042,-44.68379 -53.20368,-2.42357 L 115.00063,607.4146 64.237082,591.30348 61.481196,538.11598 16.61724,509.41526 27.721197,457.3268 -8.1857642,417.99239 16.02132,370.55272 -8.4816465,323.26519 27.178892,283.70724 15.749757,231.68916 60.433543,202.70874 62.857116,149.50506 113.51902,133.07714 129.63014,82.31359 182.81765,79.557703 211.51836,34.693747 263.60682,45.797704 302.94123,9.8907434 350.38091,34.097828 397.66843,9.5948611 437.22638,45.2554 l 52.01808,-11.429135 28.98042,44.683786 53.20369,2.423572 16.42792,50.661907 50.76354,16.11112 2.75589,53.1875 44.86396,28.70072 -11.10396,52.08846 35.90696,39.33441 -24.20708,47.43967 24.50296,47.28753 -35.66054,39.55795 11.42914,52.01808 -44.68379,28.98042 z"
       transform="matrix(0.22570765,0.43904479,-0.36559894,0.18795002,658.92693,285.53983)" />
    <path
       sodipodi:type="star"
       style="opacity:0.98999999;fill:#009800;fill-opacity:1;fill-rule:nonzero;stroke:none;stroke-width:5;stroke-miterlimit:4;stroke-dasharray:none;stroke-opacity:1"
       id="path3338-8-6-8"
       sodipodi:sides="24"
       sodipodi:cx="351.42856"
       sodipodi:cy="369.50507"
       sodipodi:r1="362.86841"
       sodipodi:r2="335.40887"
       sodipodi:arg1="0.65137496"
       sodipodi:arg2="0.78227465"
       inkscape:flatsided="false"
       inkscape:rounded="0"
       inkscape:randomized="0"
       d="m 640,589.50508 -50.66191,16.42792 -16.11112,50.76354 -53.1875,2.75589 -28.70072,44.86395 -52.08846,-11.10395 -39.33441,35.90696 -47.43967,-24.20709 -47.28753,24.50297 -39.55795,-35.66054 -52.01808,11.42914 -28.98042,-44.68379 -53.20368,-2.42357 L 115.00063,607.4146 64.237082,591.30348 61.481196,538.11598 16.61724,509.41526 27.721197,457.3268 -8.1857642,417.99239 16.02132,370.55272 -8.4816465,323.26519 27.178892,283.70724 15.749757,231.68916 60.433543,202.70874 62.857116,149.50506 113.51902,133.07714 129.63014,82.31359 182.81765,79.557703 211.51836,34.693747 263.60682,45.797704 302.94123,9.8907434 350.38091,34.097828 397.66843,9.5948611 437.22638,45.2554 l 52.01808,-11.429135 28.98042,44.683786 53.20369,2.423572 16.42792,50.661907 50.76354,16.11112 2.75589,53.1875 44.86396,28.70072 -11.10396,52.08846 35.90696,39.33441 -24.20708,47.43967 24.50296,47.28753 -35.66054,39.55795 11.42914,52.01808 -44.68379,28.98042 z"
       transform="matrix(0.20735802,0.40335123,-0.3157556,0.16232615,546.29927,116.37179)" />
    <path
       sodipodi:type="star"
       style="opacity:0.98999999;fill:#009800;fill-opacity:1;fill-rule:nonzero;stroke:none;stroke-width:5;stroke-miterlimit:4;stroke-dasharray:none;stroke-opacity:1"
       id="path3338-3-3-7"
       sodipodi:sides="24"
       sodipodi:cx="351.42856"
       sodipodi:cy="369.50507"
       sodipodi:r1="362.86841"
       sodipodi:r2="335.40887"
       sodipodi:arg1="0.65137496"
       sodipodi:arg2="0.78227465"
       inkscape:flatsided="false"
       inkscape:rounded="0"
       inkscape:randomized="0"
       d="m 640,589.50508 -50.66191,16.42792 -16.11112,50.76354 -53.1875,2.75589 -28.70072,44.86395 -52.08846,-11.10395 -39.33441,35.90696 -47.43967,-24.20709 -47.28753,24.50297 -39.55795,-35.66054 -52.01808,11.42914 -28.98042,-44.68379 -53.20368,-2.42357 L 115.00063,607.4146 64.237082,591.30348 61.481196,538.11598 16.61724,509.41526 27.721197,457.3268 -8.1857642,417.99239 16.02132,370.55272 -8.4816465,323.26519 27.178892,283.70724 15.749757,231.68916 60.433543,202.70874 62.857116,149.50506 113.51902,133.07714 129.63014,82.31359 182.81765,79.557703 211.51836,34.693747 263.60682,45.797704 302.94123,9.8907434 350.38091,34.097828 397.66843,9.5948611 437.22638,45.2554 l 52.01808,-11.429135 28.98042,44.683786 53.20369,2.423572 16.42792,50.661907 50.76354,16.11112 2.75589,53.1875 44.86396,28.70072 -11.10396,52.08846 35.90696,39.33441 -24.20708,47.43967 24.50296,47.28753 -35.66054,39.55795 11.42914,52.01808 -44.68379,28.98042 z"
       transform="matrix(0.20735802,0.40335123,-0.3157556,0.16232615,647.4325,303.28668)" />
    <path
       sodipodi:type="star"
       style="opacity:0.98999999;fill:#00989e;fill-opacity:1;fill-rule:nonzero;stroke:none;stroke-width:5;stroke-miterlimit:4;stroke-dasharray:none;stroke-opacity:1"
       id="path3338-8-2"
       sodipodi:sides="24"
       sodipodi:cx="351.42856"
       sodipodi:cy="369.50507"
       sodipodi:r1="362.86841"
       sodipodi:r2="335.40887"
       sodipodi:arg1="0.65137496"
       sodipodi:arg2="0.78227465"
       inkscape:flatsided="false"
       inkscape:rounded="0"
       inkscape:randomized="0"
       d="m 640,589.50508 -50.66191,16.42792 -16.11112,50.76354 -53.1875,2.75589 -28.70072,44.86395 -52.08846,-11.10395 -39.33441,35.90696 -47.43967,-24.20709 -47.28753,24.50297 -39.55795,-35.66054 -52.01808,11.42914 -28.98042,-44.68379 -53.20368,-2.42357 L 115.00063,607.4146 64.237082,591.30348 61.481196,538.11598 16.61724,509.41526 27.721197,457.3268 -8.1857642,417.99239 16.02132,370.55272 -8.4816465,323.26519 27.178892,283.70724 15.749757,231.68916 60.433543,202.70874 62.857116,149.50506 113.51902,133.07714 129.63014,82.31359 182.81765,79.557703 211.51836,34.693747 263.60682,45.797704 302.94123,9.8907434 350.38091,34.097828 397.66843,9.5948611 437.22638,45.2554 l 52.01808,-11.429135 28.98042,44.683786 53.20369,2.423572 16.42792,50.661907 50.76354,16.11112 2.75589,53.1875 44.86396,28.70072 -11.10396,52.08846 35.90696,39.33441 -24.20708,47.43967 24.50296,47.28753 -35.66054,39.55795 11.42914,52.01808 -44.68379,28.98042 z"
       transform="matrix(0.20462029,0.39802583,-0.30814535,0.15841382,544.84809,112.48737)" />
    <path
       sodipodi:type="star"
       style="opacity:0.98999999;fill:#00989e;fill-opacity:1;fill-rule:nonzero;stroke:none;stroke-width:5;stroke-miterlimit:4;stroke-dasharray:none;stroke-opacity:1"
       id="path3338-3-41"
       sodipodi:sides="24"
       sodipodi:cx="351.42856"
       sodipodi:cy="369.50507"
       sodipodi:r1="362.86841"
       sodipodi:r2="335.40887"
       sodipodi:arg1="0.65137496"
       sodipodi:arg2="0.78227465"
       inkscape:flatsided="false"
       inkscape:rounded="0"
       inkscape:randomized="0"
       d="m 640,589.50508 -50.66191,16.42792 -16.11112,50.76354 -53.1875,2.75589 -28.70072,44.86395 -52.08846,-11.10395 -39.33441,35.90696 -47.43967,-24.20709 -47.28753,24.50297 -39.55795,-35.66054 -52.01808,11.42914 -28.98042,-44.68379 -53.20368,-2.42357 L 115.00063,607.4146 64.237082,591.30348 61.481196,538.11598 16.61724,509.41526 27.721197,457.3268 -8.1857642,417.99239 16.02132,370.55272 -8.4816465,323.26519 27.178892,283.70724 15.749757,231.68916 60.433543,202.70874 62.857116,149.50506 113.51902,133.07714 129.63014,82.31359 182.81765,79.557703 211.51836,34.693747 263.60682,45.797704 302.94123,9.8907434 350.38091,34.097828 397.66843,9.5948611 437.22638,45.2554 l 52.01808,-11.429135 28.98042,44.683786 53.20369,2.423572 16.42792,50.661907 50.76354,16.11112 2.75589,53.1875 44.86396,28.70072 -11.10396,52.08846 35.90696,39.33441 -24.20708,47.43967 24.50296,47.28753 -35.66054,39.55795 11.42914,52.01808 -44.68379,28.98042 z"
       transform="matrix(0.20462029,0.39802583,-0.30814535,0.15841382,644.60261,296.95679)" />
    <path
       sodipodi:type="star"
       style="opacity:0.98999999;fill:#00009e;fill-opacity:1;fill-rule:nonzero;stroke:none;stroke-width:5;stroke-miterlimit:4;stroke-dasharray:none;stroke-opacity:1"
       id="path3338-8-0-9"
       sodipodi:sides="24"
       sodipodi:cx="351.42856"
       sodipodi:cy="369.50507"
       sodipodi:r1="362.86841"
       sodipodi:r2="335.40887"
       sodipodi:arg1="0.65137496"
       sodipodi:arg2="0.78227465"
       inkscape:flatsided="false"
       inkscape:rounded="0"
       inkscape:randomized="0"
       d="m 640,589.50508 -50.66191,16.42792 -16.11112,50.76354 -53.1875,2.75589 -28.70072,44.86395 -52.08846,-11.10395 -39.33441,35.90696 -47.43967,-24.20709 -47.28753,24.50297 -39.55795,-35.66054 -52.01808,11.42914 -28.98042,-44.68379 -53.20368,-2.42357 L 115.00063,607.4146 64.237082,591.30348 61.481196,538.11598 16.61724,509.41526 27.721197,457.3268 -8.1857642,417.99239 16.02132,370.55272 -8.4816465,323.26519 27.178892,283.70724 15.749757,231.68916 60.433543,202.70874 62.857116,149.50506 113.51902,133.07714 129.63014,82.31359 182.81765,79.557703 211.51836,34.693747 263.60682,45.797704 302.94123,9.8907434 350.38091,34.097828 397.66843,9.5948611 437.22638,45.2554 l 52.01808,-11.429135 28.98042,44.683786 53.20369,2.423572 16.42792,50.661907 50.76354,16.11112 2.75589,53.1875 44.86396,28.70072 -11.10396,52.08846 35.90696,39.33441 -24.20708,47.43967 24.50296,47.28753 -35.66054,39.55795 11.42914,52.01808 -44.68379,28.98042 z"
       transform="matrix(0.20051373,0.39003777,-0.30814535,0.15841382,541.56343,111.00248)" />
    <path
       sodipodi:type="star"
       style="opacity:0.98999999;fill:#00009e;fill-opacity:1;fill-rule:nonzero;stroke:none;stroke-width:5;stroke-miterlimit:4;stroke-dasharray:none;stroke-opacity:1"
       id="path3338-3-1-8"
       sodipodi:sides="24"
       sodipodi:cx="351.42856"
       sodipodi:cy="369.50507"
       sodipodi:r1="362.86841"
       sodipodi:r2="335.40887"
       sodipodi:arg1="0.65137496"
       sodipodi:arg2="0.78227465"
       inkscape:flatsided="false"
       inkscape:rounded="0"
       inkscape:randomized="0"
       d="m 640,589.50508 -50.66191,16.42792 -16.11112,50.76354 -53.1875,2.75589 -28.70072,44.86395 -52.08846,-11.10395 -39.33441,35.90696 -47.43967,-24.20709 -47.28753,24.50297 -39.55795,-35.66054 -52.01808,11.42914 -28.98042,-44.68379 -53.20368,-2.42357 L 115.00063,607.4146 64.237082,591.30348 61.481196,538.11598 16.61724,509.41526 27.721197,457.3268 -8.1857642,417.99239 16.02132,370.55272 -8.4816465,323.26519 27.178892,283.70724 15.749757,231.68916 60.433543,202.70874 62.857116,149.50506 113.51902,133.07714 129.63014,82.31359 182.81765,79.557703 211.51836,34.693747 263.60682,45.797704 302.94123,9.8907434 350.38091,34.097828 397.66843,9.5948611 437.22638,45.2554 l 52.01808,-11.429135 28.98042,44.683786 53.20369,2.423572 16.42792,50.661907 50.76354,16.11112 2.75589,53.1875 44.86396,28.70072 -11.10396,52.08846 35.90696,39.33441 -24.20708,47.43967 24.50296,47.28753 -35.66054,39.55795 11.42914,52.01808 -44.68379,28.98042 z"
       transform="matrix(0.20051373,0.39003777,-0.30814535,0.15841382,639.39408,291.72959)" />
    <path
       sodipodi:type="star"
       style="opacity:0.98999999;fill:#009800;fill-opacity:1;fill-rule:nonzero;stroke:none;stroke-width:5;stroke-miterlimit:4;stroke-dasharray:none;stroke-opacity:1"
       id="path3338-8-6-80"
       sodipodi:sides="24"
       sodipodi:cx="351.42856"
       sodipodi:cy="369.50507"
       sodipodi:r1="362.86841"
       sodipodi:r2="335.40887"
       sodipodi:arg1="0.65137496"
       sodipodi:arg2="0.78227465"
       inkscape:flatsided="false"
       inkscape:rounded="0"
       inkscape:randomized="0"
       d="m 640,589.50508 -50.66191,16.42792 -16.11112,50.76354 -53.1875,2.75589 -28.70072,44.86395 -52.08846,-11.10395 -39.33441,35.90696 -47.43967,-24.20709 -47.28753,24.50297 -39.55795,-35.66054 -52.01808,11.42914 -28.98042,-44.68379 -53.20368,-2.42357 L 115.00063,607.4146 64.237082,591.30348 61.481196,538.11598 16.61724,509.41526 27.721197,457.3268 -8.1857642,417.99239 16.02132,370.55272 -8.4816465,323.26519 27.178892,283.70724 15.749757,231.68916 60.433543,202.70874 62.857116,149.50506 113.51902,133.07714 129.63014,82.31359 182.81765,79.557703 211.51836,34.693747 263.60682,45.797704 302.94123,9.8907434 350.38091,34.097828 397.66843,9.5948611 437.22638,45.2554 l 52.01808,-11.429135 28.98042,44.683786 53.20369,2.423572 16.42792,50.661907 50.76354,16.11112 2.75589,53.1875 44.86396,28.70072 -11.10396,52.08846 35.90696,39.33441 -24.20708,47.43967 24.50296,47.28753 -35.66054,39.55795 11.42914,52.01808 -44.68379,28.98042 z"
       transform="matrix(0.18998876,0.36956468,-0.25341999,0.13028017,519.44438,125.96096)" />
    <path
       sodipodi:type="star"
       style="opacity:0.98999999;fill:#009800;fill-opacity:1;fill-rule:nonzero;stroke:none;stroke-width:5;stroke-miterlimit:4;stroke-dasharray:none;stroke-opacity:1"
       id="path3338-3-3-4"
       sodipodi:sides="24"
       sodipodi:cx="351.42856"
       sodipodi:cy="369.50507"
       sodipodi:r1="362.86841"
       sodipodi:r2="335.40887"
       sodipodi:arg1="0.65137496"
       sodipodi:arg2="0.78227465"
       inkscape:flatsided="false"
       inkscape:rounded="0"
       inkscape:randomized="0"
       d="m 640,589.50508 -50.66191,16.42792 -16.11112,50.76354 -53.1875,2.75589 -28.70072,44.86395 -52.08846,-11.10395 -39.33441,35.90696 -47.43967,-24.20709 -47.28753,24.50297 -39.55795,-35.66054 -52.01808,11.42914 -28.98042,-44.68379 -53.20368,-2.42357 L 115.00063,607.4146 64.237082,591.30348 61.481196,538.11598 16.61724,509.41526 27.721197,457.3268 -8.1857642,417.99239 16.02132,370.55272 -8.4816465,323.26519 27.178892,283.70724 15.749757,231.68916 60.433543,202.70874 62.857116,149.50506 113.51902,133.07714 129.63014,82.31359 182.81765,79.557703 211.51836,34.693747 263.60682,45.797704 302.94123,9.8907434 350.38091,34.097828 397.66843,9.5948611 437.22638,45.2554 l 52.01808,-11.429135 28.98042,44.683786 53.20369,2.423572 16.42792,50.661907 50.76354,16.11112 2.75589,53.1875 44.86396,28.70072 -11.10396,52.08846 35.90696,39.33441 -24.20708,47.43967 24.50296,47.28753 -35.66054,39.55795 11.42914,52.01808 -44.68379,28.98042 z"
       transform="matrix(0.18998876,0.36956468,-0.25341999,0.13028017,611.65294,297.45203)" />
    <path
       sodipodi:type="star"
       style="opacity:0.98999999;fill:#00989e;fill-opacity:1;fill-rule:nonzero;stroke:none;stroke-width:5;stroke-miterlimit:4;stroke-dasharray:none;stroke-opacity:1"
       id="path3338-8-5"
       sodipodi:sides="24"
       sodipodi:cx="351.42856"
       sodipodi:cy="369.50507"
       sodipodi:r1="362.86841"
       sodipodi:r2="335.40887"
       sodipodi:arg1="0.65137496"
       sodipodi:arg2="0.78227465"
       inkscape:flatsided="false"
       inkscape:rounded="0"
       inkscape:randomized="0"
       d="m 640,589.50508 -50.66191,16.42792 -16.11112,50.76354 -53.1875,2.75589 -28.70072,44.86395 -52.08846,-11.10395 -39.33441,35.90696 -47.43967,-24.20709 -47.28753,24.50297 -39.55795,-35.66054 -52.01808,11.42914 -28.98042,-44.68379 -53.20368,-2.42357 L 115.00063,607.4146 64.237082,591.30348 61.481196,538.11598 16.61724,509.41526 27.721197,457.3268 -8.1857642,417.99239 16.02132,370.55272 -8.4816465,323.26519 27.178892,283.70724 15.749757,231.68916 60.433543,202.70874 62.857116,149.50506 113.51902,133.07714 129.63014,82.31359 182.81765,79.557703 211.51836,34.693747 263.60682,45.797704 302.94123,9.8907434 350.38091,34.097828 397.66843,9.5948611 437.22638,45.2554 l 52.01808,-11.429135 28.98042,44.683786 53.20369,2.423572 16.42792,50.661907 50.76354,16.11112 2.75589,53.1875 44.86396,28.70072 -11.10396,52.08846 35.90696,39.33441 -24.20708,47.43967 24.50296,47.28753 -35.66054,39.55795 11.42914,52.01808 -44.68379,28.98042 z"
       transform="matrix(0.18748036,0.36468537,-0.24731215,0.1271402,518.06569,122.42712)" />
    <path
       sodipodi:type="star"
       style="opacity:0.98999999;fill:#00989e;fill-opacity:1;fill-rule:nonzero;stroke:none;stroke-width:5;stroke-miterlimit:4;stroke-dasharray:none;stroke-opacity:1"
       id="path3338-3-6"
       sodipodi:sides="24"
       sodipodi:cx="351.42856"
       sodipodi:cy="369.50507"
       sodipodi:r1="362.86841"
       sodipodi:r2="335.40887"
       sodipodi:arg1="0.65137496"
       sodipodi:arg2="0.78227465"
       inkscape:flatsided="false"
       inkscape:rounded="0"
       inkscape:randomized="0"
       d="m 640,589.50508 -50.66191,16.42792 -16.11112,50.76354 -53.1875,2.75589 -28.70072,44.86395 -52.08846,-11.10395 -39.33441,35.90696 -47.43967,-24.20709 -47.28753,24.50297 -39.55795,-35.66054 -52.01808,11.42914 -28.98042,-44.68379 -53.20368,-2.42357 L 115.00063,607.4146 64.237082,591.30348 61.481196,538.11598 16.61724,509.41526 27.721197,457.3268 -8.1857642,417.99239 16.02132,370.55272 -8.4816465,323.26519 27.178892,283.70724 15.749757,231.68916 60.433543,202.70874 62.857116,149.50506 113.51902,133.07714 129.63014,82.31359 182.81765,79.557703 211.51836,34.693747 263.60682,45.797704 302.94123,9.8907434 350.38091,34.097828 397.66843,9.5948611 437.22638,45.2554 l 52.01808,-11.429135 28.98042,44.683786 53.20369,2.423572 16.42792,50.661907 50.76354,16.11112 2.75589,53.1875 44.86396,28.70072 -11.10396,52.08846 35.90696,39.33441 -24.20708,47.43967 24.50296,47.28753 -35.66054,39.55795 11.42914,52.01808 -44.68379,28.98042 z"
       transform="matrix(0.18748036,0.36468537,-0.24731215,0.1271402,609.02194,291.67198)" />
    <path
       sodipodi:type="star"
       style="opacity:0.98999999;fill:#00009e;fill-opacity:1;fill-rule:nonzero;stroke:none;stroke-width:5;stroke-miterlimit:4;stroke-dasharray:none;stroke-opacity:1"
       id="path3338-8-0-3"
       sodipodi:sides="24"
       sodipodi:cx="351.42856"
       sodipodi:cy="369.50507"
       sodipodi:r1="362.86841"
       sodipodi:r2="335.40887"
       sodipodi:arg1="0.65137496"
       sodipodi:arg2="0.78227465"
       inkscape:flatsided="false"
       inkscape:rounded="0"
       inkscape:randomized="0"
       d="m 640,589.50508 -50.66191,16.42792 -16.11112,50.76354 -53.1875,2.75589 -28.70072,44.86395 -52.08846,-11.10395 -39.33441,35.90696 -47.43967,-24.20709 -47.28753,24.50297 -39.55795,-35.66054 -52.01808,11.42914 -28.98042,-44.68379 -53.20368,-2.42357 L 115.00063,607.4146 64.237082,591.30348 61.481196,538.11598 16.61724,509.41526 27.721197,457.3268 -8.1857642,417.99239 16.02132,370.55272 -8.4816465,323.26519 27.178892,283.70724 15.749757,231.68916 60.433543,202.70874 62.857116,149.50506 113.51902,133.07714 129.63014,82.31359 182.81765,79.557703 211.51836,34.693747 263.60682,45.797704 302.94123,9.8907434 350.38091,34.097828 397.66843,9.5948611 437.22638,45.2554 l 52.01808,-11.429135 28.98042,44.683786 53.20369,2.423572 16.42792,50.661907 50.76354,16.11112 2.75589,53.1875 44.86396,28.70072 -11.10396,52.08846 35.90696,39.33441 -24.20708,47.43967 24.50296,47.28753 -35.66054,39.55795 11.42914,52.01808 -44.68379,28.98042 z"
       transform="matrix(0.18371778,0.35736643,-0.24731215,0.1271402,515.28283,120.9501)" />
    <path
       sodipodi:type="star"
       style="opacity:0.98999999;fill:#00009e;fill-opacity:1;fill-rule:nonzero;stroke:none;stroke-width:5;stroke-miterlimit:4;stroke-dasharray:none;stroke-opacity:1"
       id="path3338-3-1-4"
       sodipodi:sides="24"
       sodipodi:cx="351.42856"
       sodipodi:cy="369.50507"
       sodipodi:r1="362.86841"
       sodipodi:r2="335.40887"
       sodipodi:arg1="0.65137496"
       sodipodi:arg2="0.78227465"
       inkscape:flatsided="false"
       inkscape:rounded="0"
       inkscape:randomized="0"
       d="m 640,589.50508 -50.66191,16.42792 -16.11112,50.76354 -53.1875,2.75589 -28.70072,44.86395 -52.08846,-11.10395 -39.33441,35.90696 -47.43967,-24.20709 -47.28753,24.50297 -39.55795,-35.66054 -52.01808,11.42914 -28.98042,-44.68379 -53.20368,-2.42357 L 115.00063,607.4146 64.237082,591.30348 61.481196,538.11598 16.61724,509.41526 27.721197,457.3268 -8.1857642,417.99239 16.02132,370.55272 -8.4816465,323.26519 27.178892,283.70724 15.749757,231.68916 60.433543,202.70874 62.857116,149.50506 113.51902,133.07714 129.63014,82.31359 182.81765,79.557703 211.51836,34.693747 263.60682,45.797704 302.94123,9.8907434 350.38091,34.097828 397.66843,9.5948611 437.22638,45.2554 l 52.01808,-11.429135 28.98042,44.683786 53.20369,2.423572 16.42792,50.661907 50.76354,16.11112 2.75589,53.1875 44.86396,28.70072 -11.10396,52.08846 35.90696,39.33441 -24.20708,47.43967 24.50296,47.28753 -35.66054,39.55795 11.42914,52.01808 -44.68379,28.98042 z"
       transform="matrix(0.18371778,0.35736643,-0.24731215,0.1271402,604.47635,286.7661)" />
    <path
       sodipodi:type="star"
       style="opacity:0.98999999;fill:#009800;fill-opacity:1;fill-rule:nonzero;stroke:none;stroke-width:5;stroke-miterlimit:4;stroke-dasharray:none;stroke-opacity:1"
       id="path3338-8-6-5-0"
       sodipodi:sides="24"
       sodipodi:cx="351.42856"
       sodipodi:cy="369.50507"
       sodipodi:r1="362.86841"
       sodipodi:r2="335.40887"
       sodipodi:arg1="0.65137496"
       sodipodi:arg2="0.78227465"
       inkscape:flatsided="false"
       inkscape:rounded="0"
       inkscape:randomized="0"
       d="m 640,589.50508 -50.66191,16.42792 -16.11112,50.76354 -53.1875,2.75589 -28.70072,44.86395 -52.08846,-11.10395 -39.33441,35.90696 -47.43967,-24.20709 -47.28753,24.50297 -39.55795,-35.66054 -52.01808,11.42914 -28.98042,-44.68379 -53.20368,-2.42357 L 115.00063,607.4146 64.237082,591.30348 61.481196,538.11598 16.61724,509.41526 27.721197,457.3268 -8.1857642,417.99239 16.02132,370.55272 -8.4816465,323.26519 27.178892,283.70724 15.749757,231.68916 60.433543,202.70874 62.857116,149.50506 113.51902,133.07714 129.63014,82.31359 182.81765,79.557703 211.51836,34.693747 263.60682,45.797704 302.94123,9.8907434 350.38091,34.097828 397.66843,9.5948611 437.22638,45.2554 l 52.01808,-11.429135 28.98042,44.683786 53.20369,2.423572 16.42792,50.661907 50.76354,16.11112 2.75589,53.1875 44.86396,28.70072 -11.10396,52.08846 35.90696,39.33441 -24.20708,47.43967 24.50296,47.28753 -35.66054,39.55795 11.42914,52.01808 -44.68379,28.98042 z"
       transform="matrix(0.16740919,0.32564309,-0.23596946,0.12130906,526.15714,150.0602)" />
    <path
       sodipodi:type="star"
       style="opacity:0.98999999;fill:#009800;fill-opacity:1;fill-rule:nonzero;stroke:none;stroke-width:5;stroke-miterlimit:4;stroke-dasharray:none;stroke-opacity:1"
       id="path3338-3-3-8-2"
       sodipodi:sides="24"
       sodipodi:cx="351.42856"
       sodipodi:cy="369.50507"
       sodipodi:r1="362.86841"
       sodipodi:r2="335.40887"
       sodipodi:arg1="0.65137496"
       sodipodi:arg2="0.78227465"
       inkscape:flatsided="false"
       inkscape:rounded="0"
       inkscape:randomized="0"
       d="m 640,589.50508 -50.66191,16.42792 -16.11112,50.76354 -53.1875,2.75589 -28.70072,44.86395 -52.08846,-11.10395 -39.33441,35.90696 -47.43967,-24.20709 -47.28753,24.50297 -39.55795,-35.66054 -52.01808,11.42914 -28.98042,-44.68379 -53.20368,-2.42357 L 115.00063,607.4146 64.237082,591.30348 61.481196,538.11598 16.61724,509.41526 27.721197,457.3268 -8.1857642,417.99239 16.02132,370.55272 -8.4816465,323.26519 27.178892,283.70724 15.749757,231.68916 60.433543,202.70874 62.857116,149.50506 113.51902,133.07714 129.63014,82.31359 182.81765,79.557703 211.51836,34.693747 263.60682,45.797704 302.94123,9.8907434 350.38091,34.097828 397.66843,9.5948611 437.22638,45.2554 l 52.01808,-11.429135 28.98042,44.683786 53.20369,2.423572 16.42792,50.661907 50.76354,16.11112 2.75589,53.1875 44.86396,28.70072 -11.10396,52.08846 35.90696,39.33441 -24.20708,47.43967 24.50296,47.28753 -35.66054,39.55795 11.42914,52.01808 -44.68379,28.98042 z"
       transform="matrix(0.16740919,0.32564309,-0.23596946,0.12130906,607.56696,301.08788)" />
    <path
       sodipodi:type="star"
       style="opacity:0.98999999;fill:#00989e;fill-opacity:1;fill-rule:nonzero;stroke:none;stroke-width:5;stroke-miterlimit:4;stroke-dasharray:none;stroke-opacity:1"
       id="path3338-8-4-1"
       sodipodi:sides="24"
       sodipodi:cx="351.42856"
       sodipodi:cy="369.50507"
       sodipodi:r1="362.86841"
       sodipodi:r2="335.40887"
       sodipodi:arg1="0.65137496"
       sodipodi:arg2="0.78227465"
       inkscape:flatsided="false"
       inkscape:rounded="0"
       inkscape:randomized="0"
       d="m 640,589.50508 -50.66191,16.42792 -16.11112,50.76354 -53.1875,2.75589 -28.70072,44.86395 -52.08846,-11.10395 -39.33441,35.90696 -47.43967,-24.20709 -47.28753,24.50297 -39.55795,-35.66054 -52.01808,11.42914 -28.98042,-44.68379 -53.20368,-2.42357 L 115.00063,607.4146 64.237082,591.30348 61.481196,538.11598 16.61724,509.41526 27.721197,457.3268 -8.1857642,417.99239 16.02132,370.55272 -8.4816465,323.26519 27.178892,283.70724 15.749757,231.68916 60.433543,202.70874 62.857116,149.50506 113.51902,133.07714 129.63014,82.31359 182.81765,79.557703 211.51836,34.693747 263.60682,45.797704 302.94123,9.8907434 350.38091,34.097828 397.66843,9.5948611 437.22638,45.2554 l 52.01808,-11.429135 28.98042,44.683786 53.20369,2.423572 16.42792,50.661907 50.76354,16.11112 2.75589,53.1875 44.86396,28.70072 -11.10396,52.08846 35.90696,39.33441 -24.20708,47.43967 24.50296,47.28753 -35.66054,39.55795 11.42914,52.01808 -44.68379,28.98042 z"
       transform="matrix(0.16519892,0.32134367,-0.23028219,0.1183853,524.95954,146.93749)" />
    <path
       sodipodi:type="star"
       style="opacity:0.98999999;fill:#00989e;fill-opacity:1;fill-rule:nonzero;stroke:none;stroke-width:5;stroke-miterlimit:4;stroke-dasharray:none;stroke-opacity:1"
       id="path3338-3-4-0"
       sodipodi:sides="24"
       sodipodi:cx="351.42856"
       sodipodi:cy="369.50507"
       sodipodi:r1="362.86841"
       sodipodi:r2="335.40887"
       sodipodi:arg1="0.65137496"
       sodipodi:arg2="0.78227465"
       inkscape:flatsided="false"
       inkscape:rounded="0"
       inkscape:randomized="0"
       d="m 640,589.50508 -50.66191,16.42792 -16.11112,50.76354 -53.1875,2.75589 -28.70072,44.86395 -52.08846,-11.10395 -39.33441,35.90696 -47.43967,-24.20709 -47.28753,24.50297 -39.55795,-35.66054 -52.01808,11.42914 -28.98042,-44.68379 -53.20368,-2.42357 L 115.00063,607.4146 64.237082,591.30348 61.481196,538.11598 16.61724,509.41526 27.721197,457.3268 -8.1857642,417.99239 16.02132,370.55272 -8.4816465,323.26519 27.178892,283.70724 15.749757,231.68916 60.433543,202.70874 62.857116,149.50506 113.51902,133.07714 129.63014,82.31359 182.81765,79.557703 211.51836,34.693747 263.60682,45.797704 302.94123,9.8907434 350.38091,34.097828 397.66843,9.5948611 437.22638,45.2554 l 52.01808,-11.429135 28.98042,44.683786 53.20369,2.423572 16.42792,50.661907 50.76354,16.11112 2.75589,53.1875 44.86396,28.70072 -11.10396,52.08846 35.90696,39.33441 -24.20708,47.43967 24.50296,47.28753 -35.66054,39.55795 11.42914,52.01808 -44.68379,28.98042 z"
       transform="matrix(0.16519892,0.32134367,-0.23028219,0.1183853,605.26213,295.98782)" />
    <path
       sodipodi:type="star"
       style="opacity:0.98999999;fill:#00009e;fill-opacity:1;fill-rule:nonzero;stroke:none;stroke-width:5;stroke-miterlimit:4;stroke-dasharray:none;stroke-opacity:1"
       id="path3338-8-0-8-6"
       sodipodi:sides="24"
       sodipodi:cx="351.42856"
       sodipodi:cy="369.50507"
       sodipodi:r1="362.86841"
       sodipodi:r2="335.40887"
       sodipodi:arg1="0.65137496"
       sodipodi:arg2="0.78227465"
       inkscape:flatsided="false"
       inkscape:rounded="0"
       inkscape:randomized="0"
       d="m 640,589.50508 -50.66191,16.42792 -16.11112,50.76354 -53.1875,2.75589 -28.70072,44.86395 -52.08846,-11.10395 -39.33441,35.90696 -47.43967,-24.20709 -47.28753,24.50297 -39.55795,-35.66054 -52.01808,11.42914 -28.98042,-44.68379 -53.20368,-2.42357 L 115.00063,607.4146 64.237082,591.30348 61.481196,538.11598 16.61724,509.41526 27.721197,457.3268 -8.1857642,417.99239 16.02132,370.55272 -8.4816465,323.26519 27.178892,283.70724 15.749757,231.68916 60.433543,202.70874 62.857116,149.50506 113.51902,133.07714 129.63014,82.31359 182.81765,79.557703 211.51836,34.693747 263.60682,45.797704 302.94123,9.8907434 350.38091,34.097828 397.66843,9.5948611 437.22638,45.2554 l 52.01808,-11.429135 28.98042,44.683786 53.20369,2.423572 16.42792,50.661907 50.76354,16.11112 2.75589,53.1875 44.86396,28.70072 -11.10396,52.08846 35.90696,39.33441 -24.20708,47.43967 24.50296,47.28753 -35.66054,39.55795 11.42914,52.01808 -44.68379,28.98042 z"
       transform="matrix(0.16188351,0.31489456,-0.23028219,0.1183853,522.42744,145.67711)" />
    <path
       sodipodi:type="star"
       style="opacity:0.98999999;fill:#00009e;fill-opacity:1;fill-rule:nonzero;stroke:none;stroke-width:5;stroke-miterlimit:4;stroke-dasharray:none;stroke-opacity:1"
       id="path3338-3-1-0-9"
       sodipodi:sides="24"
       sodipodi:cx="351.42856"
       sodipodi:cy="369.50507"
       sodipodi:r1="362.86841"
       sodipodi:r2="335.40887"
       sodipodi:arg1="0.65137496"
       sodipodi:arg2="0.78227465"
       inkscape:flatsided="false"
       inkscape:rounded="0"
       inkscape:randomized="0"
       d="m 640,589.50508 -50.66191,16.42792 -16.11112,50.76354 -53.1875,2.75589 -28.70072,44.86395 -52.08846,-11.10395 -39.33441,35.90696 -47.43967,-24.20709 -47.28753,24.50297 -39.55795,-35.66054 -52.01808,11.42914 -28.98042,-44.68379 -53.20368,-2.42357 L 115.00063,607.4146 64.237082,591.30348 61.481196,538.11598 16.61724,509.41526 27.721197,457.3268 -8.1857642,417.99239 16.02132,370.55272 -8.4816465,323.26519 27.178892,283.70724 15.749757,231.68916 60.433543,202.70874 62.857116,149.50506 113.51902,133.07714 129.63014,82.31359 182.81765,79.557703 211.51836,34.693747 263.60682,45.797704 302.94123,9.8907434 350.38091,34.097828 397.66843,9.5948611 437.22638,45.2554 l 52.01808,-11.429135 28.98042,44.683786 53.20369,2.423572 16.42792,50.661907 50.76354,16.11112 2.75589,53.1875 44.86396,28.70072 -11.10396,52.08846 35.90696,39.33441 -24.20708,47.43967 24.50296,47.28753 -35.66054,39.55795 11.42914,52.01808 -44.68379,28.98042 z"
       transform="matrix(0.16188351,0.31489456,-0.23028219,0.1183853,601.17673,291.70615)" />
    <path
       sodipodi:type="star"
       style="opacity:0.98999999;fill:#009800;fill-opacity:1;fill-rule:nonzero;stroke:none;stroke-width:5;stroke-miterlimit:4;stroke-dasharray:none;stroke-opacity:1"
       id="path3338-8-6-8-9"
       sodipodi:sides="24"
       sodipodi:cx="351.42856"
       sodipodi:cy="369.50507"
       sodipodi:r1="362.86841"
       sodipodi:r2="335.40887"
       sodipodi:arg1="0.65137496"
       sodipodi:arg2="0.78227465"
       inkscape:flatsided="false"
       inkscape:rounded="0"
       inkscape:randomized="0"
       d="m 640,589.50508 -50.66191,16.42792 -16.11112,50.76354 -53.1875,2.75589 -28.70072,44.86395 -52.08846,-11.10395 -39.33441,35.90696 -47.43967,-24.20709 -47.28753,24.50297 -39.55795,-35.66054 -52.01808,11.42914 -28.98042,-44.68379 -53.20368,-2.42357 L 115.00063,607.4146 64.237082,591.30348 61.481196,538.11598 16.61724,509.41526 27.721197,457.3268 -8.1857642,417.99239 16.02132,370.55272 -8.4816465,323.26519 27.178892,283.70724 15.749757,231.68916 60.433543,202.70874 62.857116,149.50506 113.51902,133.07714 129.63014,82.31359 182.81765,79.557703 211.51836,34.693747 263.60682,45.797704 302.94123,9.8907434 350.38091,34.097828 397.66843,9.5948611 437.22638,45.2554 l 52.01808,-11.429135 28.98042,44.683786 53.20369,2.423572 16.42792,50.661907 50.76354,16.11112 2.75589,53.1875 44.86396,28.70072 -11.10396,52.08846 35.90696,39.33441 -24.20708,47.43967 24.50296,47.28753 -35.66054,39.55795 11.42914,52.01808 -44.68379,28.98042 z"
       transform="matrix(0.14872266,0.28929419,-0.19888704,0.10224544,522.17007,169.46292)" />
    <path
       sodipodi:type="star"
       style="opacity:0.98999999;fill:#009800;fill-opacity:1;fill-rule:nonzero;stroke:none;stroke-width:5;stroke-miterlimit:4;stroke-dasharray:none;stroke-opacity:1"
       id="path3338-3-3-7-6"
       sodipodi:sides="24"
       sodipodi:cx="351.42856"
       sodipodi:cy="369.50507"
       sodipodi:r1="362.86841"
       sodipodi:r2="335.40887"
       sodipodi:arg1="0.65137496"
       sodipodi:arg2="0.78227465"
       inkscape:flatsided="false"
       inkscape:rounded="0"
       inkscape:randomized="0"
       d="m 640,589.50508 -50.66191,16.42792 -16.11112,50.76354 -53.1875,2.75589 -28.70072,44.86395 -52.08846,-11.10395 -39.33441,35.90696 -47.43967,-24.20709 -47.28753,24.50297 -39.55795,-35.66054 -52.01808,11.42914 -28.98042,-44.68379 -53.20368,-2.42357 L 115.00063,607.4146 64.237082,591.30348 61.481196,538.11598 16.61724,509.41526 27.721197,457.3268 -8.1857642,417.99239 16.02132,370.55272 -8.4816465,323.26519 27.178892,283.70724 15.749757,231.68916 60.433543,202.70874 62.857116,149.50506 113.51902,133.07714 129.63014,82.31359 182.81765,79.557703 211.51836,34.693747 263.60682,45.797704 302.94123,9.8907434 350.38091,34.097828 397.66843,9.5948611 437.22638,45.2554 l 52.01808,-11.429135 28.98042,44.683786 53.20369,2.423572 16.42792,50.661907 50.76354,16.11112 2.75589,53.1875 44.86396,28.70072 -11.10396,52.08846 35.90696,39.33441 -24.20708,47.43967 24.50296,47.28753 -35.66054,39.55795 11.42914,52.01808 -44.68379,28.98042 z"
       transform="matrix(0.14872266,0.28929419,-0.19888704,0.10224544,594.35712,303.70234)" />
    <path
       sodipodi:type="star"
       style="opacity:0.98999999;fill:#00989e;fill-opacity:1;fill-rule:nonzero;stroke:none;stroke-width:5;stroke-miterlimit:4;stroke-dasharray:none;stroke-opacity:1"
       id="path3338-8-2-3"
       sodipodi:sides="24"
       sodipodi:cx="351.42856"
       sodipodi:cy="369.50507"
       sodipodi:r1="362.86841"
       sodipodi:r2="335.40887"
       sodipodi:arg1="0.65137496"
       sodipodi:arg2="0.78227465"
       inkscape:flatsided="false"
       inkscape:rounded="0"
       inkscape:randomized="0"
       d="m 640,589.50508 -50.66191,16.42792 -16.11112,50.76354 -53.1875,2.75589 -28.70072,44.86395 -52.08846,-11.10395 -39.33441,35.90696 -47.43967,-24.20709 -47.28753,24.50297 -39.55795,-35.66054 -52.01808,11.42914 -28.98042,-44.68379 -53.20368,-2.42357 L 115.00063,607.4146 64.237082,591.30348 61.481196,538.11598 16.61724,509.41526 27.721197,457.3268 -8.1857642,417.99239 16.02132,370.55272 -8.4816465,323.26519 27.178892,283.70724 15.749757,231.68916 60.433543,202.70874 62.857116,149.50506 113.51902,133.07714 129.63014,82.31359 182.81765,79.557703 211.51836,34.693747 263.60682,45.797704 302.94123,9.8907434 350.38091,34.097828 397.66843,9.5948611 437.22638,45.2554 l 52.01808,-11.429135 28.98042,44.683786 53.20369,2.423572 16.42792,50.661907 50.76354,16.11112 2.75589,53.1875 44.86396,28.70072 -11.10396,52.08846 35.90696,39.33441 -24.20708,47.43967 24.50296,47.28753 -35.66054,39.55795 11.42914,52.01808 -44.68379,28.98042 z"
       transform="matrix(0.1467591,0.28547467,-0.19409352,0.09978114,521.09154,166.6963)" />
    <path
       sodipodi:type="star"
       style="opacity:0.98999999;fill:#ff0000;fill-opacity:1;fill-rule:nonzero;stroke:none;stroke-width:5;stroke-miterlimit:4;stroke-dasharray:none;stroke-opacity:1"
       id="path3338-3-41-7"
       sodipodi:sides="24"
       sodipodi:cx="351.42856"
       sodipodi:cy="369.50507"
       sodipodi:r1="362.86841"
       sodipodi:r2="335.40887"
       sodipodi:arg1="0.65137496"
       sodipodi:arg2="0.78227465"
       inkscape:flatsided="false"
       inkscape:rounded="0"
       inkscape:randomized="0"
       d="m 640,589.50508 -50.66191,16.42792 -16.11112,50.76354 -53.1875,2.75589 -28.70072,44.86395 -52.08846,-11.10395 -39.33441,35.90696 -47.43967,-24.20709 -47.28753,24.50297 -39.55795,-35.66054 -52.01808,11.42914 -28.98042,-44.68379 -53.20368,-2.42357 L 115.00063,607.4146 64.237082,591.30348 61.481196,538.11598 16.61724,509.41526 27.721197,457.3268 -8.1857642,417.99239 16.02132,370.55272 -8.4816465,323.26519 27.178892,283.70724 15.749757,231.68916 60.433543,202.70874 62.857116,149.50506 113.51902,133.07714 129.63014,82.31359 182.81765,79.557703 211.51836,34.693747 263.60682,45.797704 302.94123,9.8907434 350.38091,34.097828 397.66843,9.5948611 437.22638,45.2554 l 52.01808,-11.429135 28.98042,44.683786 53.20369,2.423572 16.42792,50.661907 50.76354,16.11112 2.75589,53.1875 44.86396,28.70072 -11.10396,52.08846 35.90696,39.33441 -24.20708,47.43967 24.50296,47.28753 -35.66054,39.55795 11.42914,52.01808 -44.68379,28.98042 z"
       transform="matrix(0.1467591,0.28547467,-0.19409352,0.09978114,594.31843,299.17744)" />
    <path
       sodipodi:type="star"
       style="opacity:0.98999999;fill:#00009e;fill-opacity:1;fill-rule:nonzero;stroke:none;stroke-width:5;stroke-miterlimit:4;stroke-dasharray:none;stroke-opacity:1"
       id="path3338-8-0-9-4"
       sodipodi:sides="24"
       sodipodi:cx="351.42856"
       sodipodi:cy="369.50507"
       sodipodi:r1="362.86841"
       sodipodi:r2="335.40887"
       sodipodi:arg1="0.65137496"
       sodipodi:arg2="0.78227465"
       inkscape:flatsided="false"
       inkscape:rounded="0"
       inkscape:randomized="0"
       d="m 640,589.50508 -50.66191,16.42792 -16.11112,50.76354 -53.1875,2.75589 -28.70072,44.86395 -52.08846,-11.10395 -39.33441,35.90696 -47.43967,-24.20709 -47.28753,24.50297 -39.55795,-35.66054 -52.01808,11.42914 -28.98042,-44.68379 -53.20368,-2.42357 L 115.00063,607.4146 64.237082,591.30348 61.481196,538.11598 16.61724,509.41526 27.721197,457.3268 -8.1857642,417.99239 16.02132,370.55272 -8.4816465,323.26519 27.178892,283.70724 15.749757,231.68916 60.433543,202.70874 62.857116,149.50506 113.51902,133.07714 129.63014,82.31359 182.81765,79.557703 211.51836,34.693747 263.60682,45.797704 302.94123,9.8907434 350.38091,34.097828 397.66843,9.5948611 437.22638,45.2554 l 52.01808,-11.429135 28.98042,44.683786 53.20369,2.423572 16.42792,50.661907 50.76354,16.11112 2.75589,53.1875 44.86396,28.70072 -11.10396,52.08846 35.90696,39.33441 -24.20708,47.43967 24.50296,47.28753 -35.66054,39.55795 11.42914,52.01808 -44.68379,28.98042 z"
       transform="matrix(0.14381376,0.27974542,-0.19409352,0.09978114,518.9099,165.54174)" />
    <path
       sodipodi:type="star"
       style="opacity:0.98999999;fill:#00009e;fill-opacity:1;fill-rule:nonzero;stroke:none;stroke-width:5;stroke-miterlimit:4;stroke-dasharray:none;stroke-opacity:1"
       id="path3338-3-1-8-6"
       sodipodi:sides="24"
       sodipodi:cx="351.42856"
       sodipodi:cy="369.50507"
       sodipodi:r1="362.86841"
       sodipodi:r2="335.40887"
       sodipodi:arg1="0.65137496"
       sodipodi:arg2="0.78227465"
       inkscape:flatsided="false"
       inkscape:rounded="0"
       inkscape:randomized="0"
       d="m 640,589.50508 -50.66191,16.42792 -16.11112,50.76354 -53.1875,2.75589 -28.70072,44.86395 -52.08846,-11.10395 -39.33441,35.90696 -47.43967,-24.20709 -47.28753,24.50297 -39.55795,-35.66054 -52.01808,11.42914 -28.98042,-44.68379 -53.20368,-2.42357 L 115.00063,607.4146 64.237082,591.30348 61.481196,538.11598 16.61724,509.41526 27.721197,457.3268 -8.1857642,417.99239 16.02132,370.55272 -8.4816465,323.26519 27.178892,283.70724 15.749757,231.68916 60.433543,202.70874 62.857116,149.50506 113.51902,133.07714 129.63014,82.31359 182.81765,79.557703 211.51836,34.693747 263.60682,45.797704 302.94123,9.8907434 350.38091,34.097828 397.66843,9.5948611 437.22638,45.2554 l 52.01808,-11.429135 28.98042,44.683786 53.20369,2.423572 16.42792,50.661907 50.76354,16.11112 2.75589,53.1875 44.86396,28.70072 -11.10396,52.08846 35.90696,39.33441 -24.20708,47.43967 24.50296,47.28753 -35.66054,39.55795 11.42914,52.01808 -44.68379,28.98042 z"
       transform="matrix(0.14381376,0.27974542,-0.19409352,0.09978114,588.73663,295.3388)" />
    <path
       sodipodi:type="star"
       style="opacity:0.98999999;fill:#009800;fill-opacity:1;fill-rule:nonzero;stroke:none;stroke-width:5;stroke-miterlimit:4;stroke-dasharray:none;stroke-opacity:1"
       id="path3338-3-3-3"
       sodipodi:sides="24"
       sodipodi:cx="351.42856"
       sodipodi:cy="369.50507"
       sodipodi:r1="362.86841"
       sodipodi:r2="335.40887"
       sodipodi:arg1="0.65137496"
       sodipodi:arg2="0.78227465"
       inkscape:flatsided="false"
       inkscape:rounded="0"
       inkscape:randomized="0"
       d="m 640,589.50508 -50.66191,16.42792 -16.11112,50.76354 -53.1875,2.75589 -28.70072,44.86395 -52.08846,-11.10395 -39.33441,35.90696 -47.43967,-24.20709 -47.28753,24.50297 -39.55795,-35.66054 -52.01808,11.42914 -28.98042,-44.68379 -53.20368,-2.42357 L 115.00063,607.4146 64.237082,591.30348 61.481196,538.11598 16.61724,509.41526 27.721197,457.3268 -8.1857642,417.99239 16.02132,370.55272 -8.4816465,323.26519 27.178892,283.70724 15.749757,231.68916 60.433543,202.70874 62.857116,149.50506 113.51902,133.07714 129.63014,82.31359 182.81765,79.557703 211.51836,34.693747 263.60682,45.797704 302.94123,9.8907434 350.38091,34.097828 397.66843,9.5948611 437.22638,45.2554 l 52.01808,-11.429135 28.98042,44.683786 53.20369,2.423572 16.42792,50.661907 50.76354,16.11112 2.75589,53.1875 44.86396,28.70072 -11.10396,52.08846 35.90696,39.33441 -24.20708,47.43967 24.50296,47.28753 -35.66054,39.55795 11.42914,52.01808 -44.68379,28.98042 z"
       transform="matrix(-0.26489367,-0.51526914,0.40233281,-0.20683446,433.34019,513.43931)" />
    <path
       sodipodi:type="star"
       style="opacity:0.98999999;fill:#00989e;fill-opacity:1;fill-rule:nonzero;stroke:none;stroke-width:5;stroke-miterlimit:4;stroke-dasharray:none;stroke-opacity:1"
       id="path3338-3-8"
       sodipodi:sides="24"
       sodipodi:cx="351.42856"
       sodipodi:cy="369.50507"
       sodipodi:r1="362.86841"
       sodipodi:r2="335.40887"
       sodipodi:arg1="0.65137496"
       sodipodi:arg2="0.78227465"
       inkscape:flatsided="false"
       inkscape:rounded="0"
       inkscape:randomized="0"
       d="m 640,589.50508 -50.66191,16.42792 -16.11112,50.76354 -53.1875,2.75589 -28.70072,44.86395 -52.08846,-11.10395 -39.33441,35.90696 -47.43967,-24.20709 -47.28753,24.50297 -39.55795,-35.66054 -52.01808,11.42914 -28.98042,-44.68379 -53.20368,-2.42357 L 115.00063,607.4146 64.237082,591.30348 61.481196,538.11598 16.61724,509.41526 27.721197,457.3268 -8.1857642,417.99239 16.02132,370.55272 -8.4816465,323.26519 27.178892,283.70724 15.749757,231.68916 60.433543,202.70874 62.857116,149.50506 113.51902,133.07714 129.63014,82.31359 182.81765,79.557703 211.51836,34.693747 263.60682,45.797704 302.94123,9.8907434 350.38091,34.097828 397.66843,9.5948611 437.22638,45.2554 l 52.01808,-11.429135 28.98042,44.683786 53.20369,2.423572 16.42792,50.661907 50.76354,16.11112 2.75589,53.1875 44.86396,28.70072 -11.10396,52.08846 35.90696,39.33441 -24.20708,47.43967 24.50296,47.28753 -35.66054,39.55795 11.42914,52.01808 -44.68379,28.98042 z"
       transform="matrix(-0.26139632,-0.50846612,0.39263592,-0.2018494,436.95639,521.52501)" />
    <path
       sodipodi:type="star"
       style="opacity:0.98999999;fill:#00009e;fill-opacity:1;fill-rule:nonzero;stroke:none;stroke-width:5;stroke-miterlimit:4;stroke-dasharray:none;stroke-opacity:1"
       id="path3338-3-1-1"
       sodipodi:sides="24"
       sodipodi:cx="351.42856"
       sodipodi:cy="369.50507"
       sodipodi:r1="362.86841"
       sodipodi:r2="335.40887"
       sodipodi:arg1="0.65137496"
       sodipodi:arg2="0.78227465"
       inkscape:flatsided="false"
       inkscape:rounded="0"
       inkscape:randomized="0"
       d="m 640,589.50508 -50.66191,16.42792 -16.11112,50.76354 -53.1875,2.75589 -28.70072,44.86395 -52.08846,-11.10395 -39.33441,35.90696 -47.43967,-24.20709 -47.28753,24.50297 -39.55795,-35.66054 -52.01808,11.42914 -28.98042,-44.68379 -53.20368,-2.42357 L 115.00063,607.4146 64.237082,591.30348 61.481196,538.11598 16.61724,509.41526 27.721197,457.3268 -8.1857642,417.99239 16.02132,370.55272 -8.4816465,323.26519 27.178892,283.70724 15.749757,231.68916 60.433543,202.70874 62.857116,149.50506 113.51902,133.07714 129.63014,82.31359 182.81765,79.557703 211.51836,34.693747 263.60682,45.797704 302.94123,9.8907434 350.38091,34.097828 397.66843,9.5948611 437.22638,45.2554 l 52.01808,-11.429135 28.98042,44.683786 53.20369,2.423572 16.42792,50.661907 50.76354,16.11112 2.75589,53.1875 44.86396,28.70072 -11.10396,52.08846 35.90696,39.33441 -24.20708,47.43967 24.50296,47.28753 -35.66054,39.55795 11.42914,52.01808 -44.68379,28.98042 z"
       transform="matrix(-0.2561503,-0.4982616,0.39263592,-0.2018494,443.60353,528.20601)" />
    <path
       sodipodi:type="star"
       style="opacity:0.98999999;fill:#009800;fill-opacity:1;fill-rule:nonzero;stroke:none;stroke-width:5;stroke-miterlimit:4;stroke-dasharray:none;stroke-opacity:1"
       id="path3338-3-3-8-8"
       sodipodi:sides="24"
       sodipodi:cx="351.42856"
       sodipodi:cy="369.50507"
       sodipodi:r1="362.86841"
       sodipodi:r2="335.40887"
       sodipodi:arg1="0.65137496"
       sodipodi:arg2="0.78227465"
       inkscape:flatsided="false"
       inkscape:rounded="0"
       inkscape:randomized="0"
       d="m 640,589.50508 -50.66191,16.42792 -16.11112,50.76354 -53.1875,2.75589 -28.70072,44.86395 -52.08846,-11.10395 -39.33441,35.90696 -47.43967,-24.20709 -47.28753,24.50297 -39.55795,-35.66054 -52.01808,11.42914 -28.98042,-44.68379 -53.20368,-2.42357 L 115.00063,607.4146 64.237082,591.30348 61.481196,538.11598 16.61724,509.41526 27.721197,457.3268 -8.1857642,417.99239 16.02132,370.55272 -8.4816465,323.26519 27.178892,283.70724 15.749757,231.68916 60.433543,202.70874 62.857116,149.50506 113.51902,133.07714 129.63014,82.31359 182.81765,79.557703 211.51836,34.693747 263.60682,45.797704 302.94123,9.8907434 350.38091,34.097828 397.66843,9.5948611 437.22638,45.2554 l 52.01808,-11.429135 28.98042,44.683786 53.20369,2.423572 16.42792,50.661907 50.76354,16.11112 2.75589,53.1875 44.86396,28.70072 -11.10396,52.08846 35.90696,39.33441 -24.20708,47.43967 24.50296,47.28753 -35.66054,39.55795 11.42914,52.01808 -44.68379,28.98042 z"
       transform="matrix(-0.23341189,-0.45403103,0.37462812,-0.19259181,439.94787,507.90181)" />
    <path
       sodipodi:type="star"
       style="opacity:0.98999999;fill:#00989e;fill-opacity:1;fill-rule:nonzero;stroke:none;stroke-width:5;stroke-miterlimit:4;stroke-dasharray:none;stroke-opacity:1"
       id="path3338-3-4-5"
       sodipodi:sides="24"
       sodipodi:cx="351.42856"
       sodipodi:cy="369.50507"
       sodipodi:r1="362.86841"
       sodipodi:r2="335.40887"
       sodipodi:arg1="0.65137496"
       sodipodi:arg2="0.78227465"
       inkscape:flatsided="false"
       inkscape:rounded="0"
       inkscape:randomized="0"
       d="m 640,589.50508 -50.66191,16.42792 -16.11112,50.76354 -53.1875,2.75589 -28.70072,44.86395 -52.08846,-11.10395 -39.33441,35.90696 -47.43967,-24.20709 -47.28753,24.50297 -39.55795,-35.66054 -52.01808,11.42914 -28.98042,-44.68379 -53.20368,-2.42357 L 115.00063,607.4146 64.237082,591.30348 61.481196,538.11598 16.61724,509.41526 27.721197,457.3268 -8.1857642,417.99239 16.02132,370.55272 -8.4816465,323.26519 27.178892,283.70724 15.749757,231.68916 60.433543,202.70874 62.857116,149.50506 113.51902,133.07714 129.63014,82.31359 182.81765,79.557703 211.51836,34.693747 263.60682,45.797704 302.94123,9.8907434 350.38091,34.097828 397.66843,9.5948611 437.22638,45.2554 l 52.01808,-11.429135 28.98042,44.683786 53.20369,2.423572 16.42792,50.661907 50.76354,16.11112 2.75589,53.1875 44.86396,28.70072 -11.10396,52.08846 35.90696,39.33441 -24.20708,47.43967 24.50296,47.28753 -35.66054,39.55795 11.42914,52.01808 -44.68379,28.98042 z"
       transform="matrix(-0.23033019,-0.44803653,0.36559894,-0.18795002,443.11289,515.03751)" />
    <path
       sodipodi:type="star"
       style="opacity:0.98999999;fill:#00009e;fill-opacity:1;fill-rule:nonzero;stroke:none;stroke-width:5;stroke-miterlimit:4;stroke-dasharray:none;stroke-opacity:1"
       id="path3338-3-1-0-3"
       sodipodi:sides="24"
       sodipodi:cx="351.42856"
       sodipodi:cy="369.50507"
       sodipodi:r1="362.86841"
       sodipodi:r2="335.40887"
       sodipodi:arg1="0.65137496"
       sodipodi:arg2="0.78227465"
       inkscape:flatsided="false"
       inkscape:rounded="0"
       inkscape:randomized="0"
       d="m 640,589.50508 -50.66191,16.42792 -16.11112,50.76354 -53.1875,2.75589 -28.70072,44.86395 -52.08846,-11.10395 -39.33441,35.90696 -47.43967,-24.20709 -47.28753,24.50297 -39.55795,-35.66054 -52.01808,11.42914 -28.98042,-44.68379 -53.20368,-2.42357 L 115.00063,607.4146 64.237082,591.30348 61.481196,538.11598 16.61724,509.41526 27.721197,457.3268 -8.1857642,417.99239 16.02132,370.55272 -8.4816465,323.26519 27.178892,283.70724 15.749757,231.68916 60.433543,202.70874 62.857116,149.50506 113.51902,133.07714 129.63014,82.31359 182.81765,79.557703 211.51836,34.693747 263.60682,45.797704 302.94123,9.8907434 350.38091,34.097828 397.66843,9.5948611 437.22638,45.2554 l 52.01808,-11.429135 28.98042,44.683786 53.20369,2.423572 16.42792,50.661907 50.76354,16.11112 2.75589,53.1875 44.86396,28.70072 -11.10396,52.08846 35.90696,39.33441 -24.20708,47.43967 24.50296,47.28753 -35.66054,39.55795 11.42914,52.01808 -44.68379,28.98042 z"
       transform="matrix(-0.22570765,-0.43904479,0.36559894,-0.18795002,449.09715,520.85921)" />
    <path
       sodipodi:type="star"
       style="opacity:0.98999999;fill:#009800;fill-opacity:1;fill-rule:nonzero;stroke:none;stroke-width:5;stroke-miterlimit:4;stroke-dasharray:none;stroke-opacity:1"
       id="path3338-3-3-7-3"
       sodipodi:sides="24"
       sodipodi:cx="351.42856"
       sodipodi:cy="369.50507"
       sodipodi:r1="362.86841"
       sodipodi:r2="335.40887"
       sodipodi:arg1="0.65137496"
       sodipodi:arg2="0.78227465"
       inkscape:flatsided="false"
       inkscape:rounded="0"
       inkscape:randomized="0"
       d="m 640,589.50508 -50.66191,16.42792 -16.11112,50.76354 -53.1875,2.75589 -28.70072,44.86395 -52.08846,-11.10395 -39.33441,35.90696 -47.43967,-24.20709 -47.28753,24.50297 -39.55795,-35.66054 -52.01808,11.42914 -28.98042,-44.68379 -53.20368,-2.42357 L 115.00063,607.4146 64.237082,591.30348 61.481196,538.11598 16.61724,509.41526 27.721197,457.3268 -8.1857642,417.99239 16.02132,370.55272 -8.4816465,323.26519 27.178892,283.70724 15.749757,231.68916 60.433543,202.70874 62.857116,149.50506 113.51902,133.07714 129.63014,82.31359 182.81765,79.557703 211.51836,34.693747 263.60682,45.797704 302.94123,9.8907434 350.38091,34.097828 397.66843,9.5948611 437.22638,45.2554 l 52.01808,-11.429135 28.98042,44.683786 53.20369,2.423572 16.42792,50.661907 50.76354,16.11112 2.75589,53.1875 44.86396,28.70072 -11.10396,52.08846 35.90696,39.33441 -24.20708,47.43967 24.50296,47.28753 -35.66054,39.55795 11.42914,52.01808 -44.68379,28.98042 z"
       transform="matrix(-0.20735802,-0.40335123,0.3157556,-0.16232615,460.59154,503.11231)" />
    <path
       sodipodi:type="star"
       style="opacity:0.98999999;fill:#00989e;fill-opacity:1;fill-rule:nonzero;stroke:none;stroke-width:5;stroke-miterlimit:4;stroke-dasharray:none;stroke-opacity:1"
       id="path3338-3-41-76"
       sodipodi:sides="24"
       sodipodi:cx="351.42856"
       sodipodi:cy="369.50507"
       sodipodi:r1="362.86841"
       sodipodi:r2="335.40887"
       sodipodi:arg1="0.65137496"
       sodipodi:arg2="0.78227465"
       inkscape:flatsided="false"
       inkscape:rounded="0"
       inkscape:randomized="0"
       d="m 640,589.50508 -50.66191,16.42792 -16.11112,50.76354 -53.1875,2.75589 -28.70072,44.86395 -52.08846,-11.10395 -39.33441,35.90696 -47.43967,-24.20709 -47.28753,24.50297 -39.55795,-35.66054 -52.01808,11.42914 -28.98042,-44.68379 -53.20368,-2.42357 L 115.00063,607.4146 64.237082,591.30348 61.481196,538.11598 16.61724,509.41526 27.721197,457.3268 -8.1857642,417.99239 16.02132,370.55272 -8.4816465,323.26519 27.178892,283.70724 15.749757,231.68916 60.433543,202.70874 62.857116,149.50506 113.51902,133.07714 129.63014,82.31359 182.81765,79.557703 211.51836,34.693747 263.60682,45.797704 302.94123,9.8907434 350.38091,34.097828 397.66843,9.5948611 437.22638,45.2554 l 52.01808,-11.429135 28.98042,44.683786 53.20369,2.423572 16.42792,50.661907 50.76354,16.11112 2.75589,53.1875 44.86396,28.70072 -11.10396,52.08846 35.90696,39.33441 -24.20708,47.43967 24.50296,47.28753 -35.66054,39.55795 11.42914,52.01808 -44.68379,28.98042 z"
       transform="matrix(-0.20462029,-0.39802583,0.30814535,-0.15841382,463.42143,509.44221)" />
    <path
       sodipodi:type="star"
       style="opacity:0.98999999;fill:#00009e;fill-opacity:1;fill-rule:nonzero;stroke:none;stroke-width:5;stroke-miterlimit:4;stroke-dasharray:none;stroke-opacity:1"
       id="path3338-3-1-8-60"
       sodipodi:sides="24"
       sodipodi:cx="351.42856"
       sodipodi:cy="369.50507"
       sodipodi:r1="362.86841"
       sodipodi:r2="335.40887"
       sodipodi:arg1="0.65137496"
       sodipodi:arg2="0.78227465"
       inkscape:flatsided="false"
       inkscape:rounded="0"
       inkscape:randomized="0"
       d="m 640,589.50508 -50.66191,16.42792 -16.11112,50.76354 -53.1875,2.75589 -28.70072,44.86395 -52.08846,-11.10395 -39.33441,35.90696 -47.43967,-24.20709 -47.28753,24.50297 -39.55795,-35.66054 -52.01808,11.42914 -28.98042,-44.68379 -53.20368,-2.42357 L 115.00063,607.4146 64.237082,591.30348 61.481196,538.11598 16.61724,509.41526 27.721197,457.3268 -8.1857642,417.99239 16.02132,370.55272 -8.4816465,323.26519 27.178892,283.70724 15.749757,231.68916 60.433543,202.70874 62.857116,149.50506 113.51902,133.07714 129.63014,82.31359 182.81765,79.557703 211.51836,34.693747 263.60682,45.797704 302.94123,9.8907434 350.38091,34.097828 397.66843,9.5948611 437.22638,45.2554 l 52.01808,-11.429135 28.98042,44.683786 53.20369,2.423572 16.42792,50.661907 50.76354,16.11112 2.75589,53.1875 44.86396,28.70072 -11.10396,52.08846 35.90696,39.33441 -24.20708,47.43967 24.50296,47.28753 -35.66054,39.55795 11.42914,52.01808 -44.68379,28.98042 z"
       transform="matrix(-0.20051373,-0.39003777,0.30814535,-0.15841382,468.63003,514.66941)" />
    <path
       sodipodi:type="star"
       style="opacity:0.98999999;fill:#009800;fill-opacity:1;fill-rule:nonzero;stroke:none;stroke-width:5;stroke-miterlimit:4;stroke-dasharray:none;stroke-opacity:1"
       id="path3338-3-3-4-8"
       sodipodi:sides="24"
       sodipodi:cx="351.42856"
       sodipodi:cy="369.50507"
       sodipodi:r1="362.86841"
       sodipodi:r2="335.40887"
       sodipodi:arg1="0.65137496"
       sodipodi:arg2="0.78227465"
       inkscape:flatsided="false"
       inkscape:rounded="0"
       inkscape:randomized="0"
       d="m 640,589.50508 -50.66191,16.42792 -16.11112,50.76354 -53.1875,2.75589 -28.70072,44.86395 -52.08846,-11.10395 -39.33441,35.90696 -47.43967,-24.20709 -47.28753,24.50297 -39.55795,-35.66054 -52.01808,11.42914 -28.98042,-44.68379 -53.20368,-2.42357 L 115.00063,607.4146 64.237082,591.30348 61.481196,538.11598 16.61724,509.41526 27.721197,457.3268 -8.1857642,417.99239 16.02132,370.55272 -8.4816465,323.26519 27.178892,283.70724 15.749757,231.68916 60.433543,202.70874 62.857116,149.50506 113.51902,133.07714 129.63014,82.31359 182.81765,79.557703 211.51836,34.693747 263.60682,45.797704 302.94123,9.8907434 350.38091,34.097828 397.66843,9.5948611 437.22638,45.2554 l 52.01808,-11.429135 28.98042,44.683786 53.20369,2.423572 16.42792,50.661907 50.76354,16.11112 2.75589,53.1875 44.86396,28.70072 -11.10396,52.08846 35.90696,39.33441 -24.20708,47.43967 24.50296,47.28753 -35.66054,39.55795 11.42914,52.01808 -44.68379,28.98042 z"
       transform="matrix(-0.18998876,-0.36956468,0.25341999,-0.13028017,496.3711,508.94701)" />
    <path
       sodipodi:type="star"
       style="opacity:0.98999999;fill:#00989e;fill-opacity:1;fill-rule:nonzero;stroke:none;stroke-width:5;stroke-miterlimit:4;stroke-dasharray:none;stroke-opacity:1"
       id="path3338-3-6-9"
       sodipodi:sides="24"
       sodipodi:cx="351.42856"
       sodipodi:cy="369.50507"
       sodipodi:r1="362.86841"
       sodipodi:r2="335.40887"
       sodipodi:arg1="0.65137496"
       sodipodi:arg2="0.78227465"
       inkscape:flatsided="false"
       inkscape:rounded="0"
       inkscape:randomized="0"
       d="m 640,589.50508 -50.66191,16.42792 -16.11112,50.76354 -53.1875,2.75589 -28.70072,44.86395 -52.08846,-11.10395 -39.33441,35.90696 -47.43967,-24.20709 -47.28753,24.50297 -39.55795,-35.66054 -52.01808,11.42914 -28.98042,-44.68379 -53.20368,-2.42357 L 115.00063,607.4146 64.237082,591.30348 61.481196,538.11598 16.61724,509.41526 27.721197,457.3268 -8.1857642,417.99239 16.02132,370.55272 -8.4816465,323.26519 27.178892,283.70724 15.749757,231.68916 60.433543,202.70874 62.857116,149.50506 113.51902,133.07714 129.63014,82.31359 182.81765,79.557703 211.51836,34.693747 263.60682,45.797704 302.94123,9.8907434 350.38091,34.097828 397.66843,9.5948611 437.22638,45.2554 l 52.01808,-11.429135 28.98042,44.683786 53.20369,2.423572 16.42792,50.661907 50.76354,16.11112 2.75589,53.1875 44.86396,28.70072 -11.10396,52.08846 35.90696,39.33441 -24.20708,47.43967 24.50296,47.28753 -35.66054,39.55795 11.42914,52.01808 -44.68379,28.98042 z"
       transform="matrix(-0.18748036,-0.36468537,0.24731215,-0.1271402,499.00209,514.72701)" />
    <path
       sodipodi:type="star"
       style="opacity:0.98999999;fill:#00009e;fill-opacity:1;fill-rule:nonzero;stroke:none;stroke-width:5;stroke-miterlimit:4;stroke-dasharray:none;stroke-opacity:1"
       id="path3338-3-1-4-6"
       sodipodi:sides="24"
       sodipodi:cx="351.42856"
       sodipodi:cy="369.50507"
       sodipodi:r1="362.86841"
       sodipodi:r2="335.40887"
       sodipodi:arg1="0.65137496"
       sodipodi:arg2="0.78227465"
       inkscape:flatsided="false"
       inkscape:rounded="0"
       inkscape:randomized="0"
       d="m 640,589.50508 -50.66191,16.42792 -16.11112,50.76354 -53.1875,2.75589 -28.70072,44.86395 -52.08846,-11.10395 -39.33441,35.90696 -47.43967,-24.20709 -47.28753,24.50297 -39.55795,-35.66054 -52.01808,11.42914 -28.98042,-44.68379 -53.20368,-2.42357 L 115.00063,607.4146 64.237082,591.30348 61.481196,538.11598 16.61724,509.41526 27.721197,457.3268 -8.1857642,417.99239 16.02132,370.55272 -8.4816465,323.26519 27.178892,283.70724 15.749757,231.68916 60.433543,202.70874 62.857116,149.50506 113.51902,133.07714 129.63014,82.31359 182.81765,79.557703 211.51836,34.693747 263.60682,45.797704 302.94123,9.8907434 350.38091,34.097828 397.66843,9.5948611 437.22638,45.2554 l 52.01808,-11.429135 28.98042,44.683786 53.20369,2.423572 16.42792,50.661907 50.76354,16.11112 2.75589,53.1875 44.86396,28.70072 -11.10396,52.08846 35.90696,39.33441 -24.20708,47.43967 24.50296,47.28753 -35.66054,39.55795 11.42914,52.01808 -44.68379,28.98042 z"
       transform="matrix(-0.18371778,-0.35736643,0.24731215,-0.1271402,503.54773,519.63291)" />
    <path
       sodipodi:type="star"
       style="opacity:0.98999999;fill:#009800;fill-opacity:1;fill-rule:nonzero;stroke:none;stroke-width:5;stroke-miterlimit:4;stroke-dasharray:none;stroke-opacity:1"
       id="path3338-3-3-8-2-9"
       sodipodi:sides="24"
       sodipodi:cx="351.42856"
       sodipodi:cy="369.50507"
       sodipodi:r1="362.86841"
       sodipodi:r2="335.40887"
       sodipodi:arg1="0.65137496"
       sodipodi:arg2="0.78227465"
       inkscape:flatsided="false"
       inkscape:rounded="0"
       inkscape:randomized="0"
       d="m 640,589.50508 -50.66191,16.42792 -16.11112,50.76354 -53.1875,2.75589 -28.70072,44.86395 -52.08846,-11.10395 -39.33441,35.90696 -47.43967,-24.20709 -47.28753,24.50297 -39.55795,-35.66054 -52.01808,11.42914 -28.98042,-44.68379 -53.20368,-2.42357 L 115.00063,607.4146 64.237082,591.30348 61.481196,538.11598 16.61724,509.41526 27.721197,457.3268 -8.1857642,417.99239 16.02132,370.55272 -8.4816465,323.26519 27.178892,283.70724 15.749757,231.68916 60.433543,202.70874 62.857116,149.50506 113.51902,133.07714 129.63014,82.31359 182.81765,79.557703 211.51836,34.693747 263.60682,45.797704 302.94123,9.8907434 350.38091,34.097828 397.66843,9.5948611 437.22638,45.2554 l 52.01808,-11.429135 28.98042,44.683786 53.20369,2.423572 16.42792,50.661907 50.76354,16.11112 2.75589,53.1875 44.86396,28.70072 -11.10396,52.08846 35.90696,39.33441 -24.20708,47.43967 24.50296,47.28753 -35.66054,39.55795 11.42914,52.01808 -44.68379,28.98042 z"
       transform="matrix(-0.16740919,-0.32564309,0.23596946,-0.12130906,500.45711,505.31121)" />
    <path
       sodipodi:type="star"
       style="opacity:0.98999999;fill:#00989e;fill-opacity:1;fill-rule:nonzero;stroke:none;stroke-width:5;stroke-miterlimit:4;stroke-dasharray:none;stroke-opacity:1"
       id="path3338-3-4-0-2"
       sodipodi:sides="24"
       sodipodi:cx="351.42856"
       sodipodi:cy="369.50507"
       sodipodi:r1="362.86841"
       sodipodi:r2="335.40887"
       sodipodi:arg1="0.65137496"
       sodipodi:arg2="0.78227465"
       inkscape:flatsided="false"
       inkscape:rounded="0"
       inkscape:randomized="0"
       d="m 640,589.50508 -50.66191,16.42792 -16.11112,50.76354 -53.1875,2.75589 -28.70072,44.86395 -52.08846,-11.10395 -39.33441,35.90696 -47.43967,-24.20709 -47.28753,24.50297 -39.55795,-35.66054 -52.01808,11.42914 -28.98042,-44.68379 -53.20368,-2.42357 L 115.00063,607.4146 64.237082,591.30348 61.481196,538.11598 16.61724,509.41526 27.721197,457.3268 -8.1857642,417.99239 16.02132,370.55272 -8.4816465,323.26519 27.178892,283.70724 15.749757,231.68916 60.433543,202.70874 62.857116,149.50506 113.51902,133.07714 129.63014,82.31359 182.81765,79.557703 211.51836,34.693747 263.60682,45.797704 302.94123,9.8907434 350.38091,34.097828 397.66843,9.5948611 437.22638,45.2554 l 52.01808,-11.429135 28.98042,44.683786 53.20369,2.423572 16.42792,50.661907 50.76354,16.11112 2.75589,53.1875 44.86396,28.70072 -11.10396,52.08846 35.90696,39.33441 -24.20708,47.43967 24.50296,47.28753 -35.66054,39.55795 11.42914,52.01808 -44.68379,28.98042 z"
       transform="matrix(-0.16519892,-0.32134367,0.23028219,-0.1183853,502.76194,510.41121)" />
    <path
       sodipodi:type="star"
       style="opacity:0.98999999;fill:#00009e;fill-opacity:1;fill-rule:nonzero;stroke:none;stroke-width:5;stroke-miterlimit:4;stroke-dasharray:none;stroke-opacity:1"
       id="path3338-3-1-0-9-5"
       sodipodi:sides="24"
       sodipodi:cx="351.42856"
       sodipodi:cy="369.50507"
       sodipodi:r1="362.86841"
       sodipodi:r2="335.40887"
       sodipodi:arg1="0.65137496"
       sodipodi:arg2="0.78227465"
       inkscape:flatsided="false"
       inkscape:rounded="0"
       inkscape:randomized="0"
       d="m 640,589.50508 -50.66191,16.42792 -16.11112,50.76354 -53.1875,2.75589 -28.70072,44.86395 -52.08846,-11.10395 -39.33441,35.90696 -47.43967,-24.20709 -47.28753,24.50297 -39.55795,-35.66054 -52.01808,11.42914 -28.98042,-44.68379 -53.20368,-2.42357 L 115.00063,607.4146 64.237082,591.30348 61.481196,538.11598 16.61724,509.41526 27.721197,457.3268 -8.1857642,417.99239 16.02132,370.55272 -8.4816465,323.26519 27.178892,283.70724 15.749757,231.68916 60.433543,202.70874 62.857116,149.50506 113.51902,133.07714 129.63014,82.31359 182.81765,79.557703 211.51836,34.693747 263.60682,45.797704 302.94123,9.8907434 350.38091,34.097828 397.66843,9.5948611 437.22638,45.2554 l 52.01808,-11.429135 28.98042,44.683786 53.20369,2.423572 16.42792,50.661907 50.76354,16.11112 2.75589,53.1875 44.86396,28.70072 -11.10396,52.08846 35.90696,39.33441 -24.20708,47.43967 24.50296,47.28753 -35.66054,39.55795 11.42914,52.01808 -44.68379,28.98042 z"
       transform="matrix(-0.16188351,-0.31489456,0.23028219,-0.1183853,506.84734,514.69281)" />
    <path
       sodipodi:type="star"
       style="opacity:0.98999999;fill:#009800;fill-opacity:1;fill-rule:nonzero;stroke:none;stroke-width:5;stroke-miterlimit:4;stroke-dasharray:none;stroke-opacity:1"
       id="path3338-3-3-7-6-4"
       sodipodi:sides="24"
       sodipodi:cx="351.42856"
       sodipodi:cy="369.50507"
       sodipodi:r1="362.86841"
       sodipodi:r2="335.40887"
       sodipodi:arg1="0.65137496"
       sodipodi:arg2="0.78227465"
       inkscape:flatsided="false"
       inkscape:rounded="0"
       inkscape:randomized="0"
       d="m 640,589.50508 -50.66191,16.42792 -16.11112,50.76354 -53.1875,2.75589 -28.70072,44.86395 -52.08846,-11.10395 -39.33441,35.90696 -47.43967,-24.20709 -47.28753,24.50297 -39.55795,-35.66054 -52.01808,11.42914 -28.98042,-44.68379 -53.20368,-2.42357 L 115.00063,607.4146 64.237082,591.30348 61.481196,538.11598 16.61724,509.41526 27.721197,457.3268 -8.1857642,417.99239 16.02132,370.55272 -8.4816465,323.26519 27.178892,283.70724 15.749757,231.68916 60.433543,202.70874 62.857116,149.50506 113.51902,133.07714 129.63014,82.31359 182.81765,79.557703 211.51836,34.693747 263.60682,45.797704 302.94123,9.8907434 350.38091,34.097828 397.66843,9.5948611 437.22638,45.2554 l 52.01808,-11.429135 28.98042,44.683786 53.20369,2.423572 16.42792,50.661907 50.76354,16.11112 2.75589,53.1875 44.86396,28.70072 -11.10396,52.08846 35.90696,39.33441 -24.20708,47.43967 24.50296,47.28753 -35.66054,39.55795 11.42914,52.01808 -44.68379,28.98042 z"
       transform="matrix(-0.14872266,-0.28929419,0.19888704,-0.10224544,513.66695,502.69661)" />
    <path
       sodipodi:type="star"
       style="opacity:0.98999999;fill:#ff0000;fill-opacity:1;fill-rule:nonzero;stroke:none;stroke-width:5;stroke-miterlimit:4;stroke-dasharray:none;stroke-opacity:1"
       id="path3338-3-41-7-9"
       sodipodi:sides="24"
       sodipodi:cx="351.42856"
       sodipodi:cy="369.50507"
       sodipodi:r1="362.86841"
       sodipodi:r2="335.40887"
       sodipodi:arg1="0.65137496"
       sodipodi:arg2="0.78227465"
       inkscape:flatsided="false"
       inkscape:rounded="0"
       inkscape:randomized="0"
       d="m 640,589.50508 -50.66191,16.42792 -16.11112,50.76354 -53.1875,2.75589 -28.70072,44.86395 -52.08846,-11.10395 -39.33441,35.90696 -47.43967,-24.20709 -47.28753,24.50297 -39.55795,-35.66054 -52.01808,11.42914 -28.98042,-44.68379 -53.20368,-2.42357 L 115.00063,607.4146 64.237082,591.30348 61.481196,538.11598 16.61724,509.41526 27.721197,457.3268 -8.1857642,417.99239 16.02132,370.55272 -8.4816465,323.26519 27.178892,283.70724 15.749757,231.68916 60.433543,202.70874 62.857116,149.50506 113.51902,133.07714 129.63014,82.31359 182.81765,79.557703 211.51836,34.693747 263.60682,45.797704 302.94123,9.8907434 350.38091,34.097828 397.66843,9.5948611 437.22638,45.2554 l 52.01808,-11.429135 28.98042,44.683786 53.20369,2.423572 16.42792,50.661907 50.76354,16.11112 2.75589,53.1875 44.86396,28.70072 -11.10396,52.08846 35.90696,39.33441 -24.20708,47.43967 24.50296,47.28753 -35.66054,39.55795 11.42914,52.01808 -44.68379,28.98042 z"
       transform="matrix(-0.1467591,-0.28547467,0.19409352,-0.09978114,515.72595,507.22151)" />
    <path
       sodipodi:type="star"
       style="opacity:0.98999999;fill:#00009e;fill-opacity:1;fill-rule:nonzero;stroke:none;stroke-width:5;stroke-miterlimit:4;stroke-dasharray:none;stroke-opacity:1"
       id="path3338-3-1-8-6-5"
       sodipodi:sides="24"
       sodipodi:cx="351.42856"
       sodipodi:cy="369.50507"
       sodipodi:r1="362.86841"
       sodipodi:r2="335.40887"
       sodipodi:arg1="0.65137496"
       sodipodi:arg2="0.78227465"
       inkscape:flatsided="false"
       inkscape:rounded="0"
       inkscape:randomized="0"
       d="m 640,589.50508 -50.66191,16.42792 -16.11112,50.76354 -53.1875,2.75589 -28.70072,44.86395 -52.08846,-11.10395 -39.33441,35.90696 -47.43967,-24.20709 -47.28753,24.50297 -39.55795,-35.66054 -52.01808,11.42914 -28.98042,-44.68379 -53.20368,-2.42357 L 115.00063,607.4146 64.237082,591.30348 61.481196,538.11598 16.61724,509.41526 27.721197,457.3268 -8.1857642,417.99239 16.02132,370.55272 -8.4816465,323.26519 27.178892,283.70724 15.749757,231.68916 60.433543,202.70874 62.857116,149.50506 113.51902,133.07714 129.63014,82.31359 182.81765,79.557703 211.51836,34.693747 263.60682,45.797704 302.94123,9.8907434 350.38091,34.097828 397.66843,9.5948611 437.22638,45.2554 l 52.01808,-11.429135 28.98042,44.683786 53.20369,2.423572 16.42792,50.661907 50.76354,16.11112 2.75589,53.1875 44.86396,28.70072 -11.10396,52.08846 35.90696,39.33441 -24.20708,47.43967 24.50296,47.28753 -35.66054,39.55795 11.42914,52.01808 -44.68379,28.98042 z"
       transform="matrix(-0.14381376,-0.27974542,0.19409352,-0.09978114,519.28744,511.06031)" />
  </g>
  <g
     inkscape:groupmode="layer"
     id="layer3"
     inkscape:label="Layer 3" />
</svg>
