<?xml version="1.0" encoding="UTF-8" standalone="no"?>
<!-- Created with Inkscape (http://www.inkscape.org/) -->

<svg
   xmlns:dc="http://purl.org/dc/elements/1.1/"
   xmlns:cc="http://creativecommons.org/ns#"
   xmlns:rdf="http://www.w3.org/1999/02/22-rdf-syntax-ns#"
   xmlns:svg="http://www.w3.org/2000/svg"
   xmlns="http://www.w3.org/2000/svg"
   xmlns:xlink="http://www.w3.org/1999/xlink"
   xmlns:sodipodi="http://sodipodi.sourceforge.net/DTD/sodipodi-0.dtd"
   xmlns:inkscape="http://www.inkscape.org/namespaces/inkscape"
   width="210mm"
   height="297mm"
   viewBox="0 0 744.09448819 1052.3622047"
   id="svg5163"
   version="1.1"
   inkscape:version="0.91 r13725"
   sodipodi:docname="crystal rock.svg">
  <defs
     id="defs5165">
    <linearGradient
       inkscape:collect="always"
       id="linearGradient5974">
      <stop
         style="stop-color:#00b500;stop-opacity:1;"
         offset="0"
         id="stop5976" />
      <stop
         style="stop-color:#00b500;stop-opacity:0;"
         offset="1"
         id="stop5978" />
    </linearGradient>
    <linearGradient
       inkscape:collect="always"
       id="linearGradient5893">
      <stop
         style="stop-color:#ff00ff;stop-opacity:1;"
         offset="0"
         id="stop5895" />
      <stop
         style="stop-color:#ff00ff;stop-opacity:0;"
         offset="1"
         id="stop5897" />
    </linearGradient>
    <linearGradient
       inkscape:collect="always"
       id="linearGradient5728">
      <stop
         style="stop-color:#803300;stop-opacity:1;"
         offset="0"
         id="stop5730" />
      <stop
         style="stop-color:#803300;stop-opacity:0;"
         offset="1"
         id="stop5732" />
    </linearGradient>
    <linearGradient
       inkscape:collect="always"
       xlink:href="#linearGradient5728"
       id="linearGradient5734"
       x1="97.14286"
       y1="498.07648"
       x2="414.28571"
       y2="598.07648"
       gradientUnits="userSpaceOnUse" />
    <linearGradient
       inkscape:collect="always"
       xlink:href="#linearGradient5893"
       id="linearGradient5899"
       x1="386.95358"
       y1="201.25259"
       x2="337.05447"
       y2="354.71594"
       gradientUnits="userSpaceOnUse" />
    <linearGradient
       inkscape:collect="always"
       xlink:href="#linearGradient5893"
       id="linearGradient5901"
       x1="386.95358"
       y1="201.25259"
       x2="337.05447"
       y2="354.71594"
       gradientUnits="userSpaceOnUse" />
    <linearGradient
       inkscape:collect="always"
       xlink:href="#linearGradient5893"
       id="linearGradient5903"
       x1="386.95358"
       y1="201.25259"
       x2="337.05447"
       y2="354.71594"
       gradientUnits="userSpaceOnUse" />
    <linearGradient
       inkscape:collect="always"
       xlink:href="#linearGradient5893"
       id="linearGradient5905"
       x1="386.95358"
       y1="201.25259"
       x2="337.05447"
       y2="354.71594"
       gradientUnits="userSpaceOnUse" />
    <linearGradient
       inkscape:collect="always"
       xlink:href="#linearGradient5893"
       id="linearGradient5907"
       x1="386.95358"
       y1="201.25259"
       x2="337.05447"
       y2="354.71594"
       gradientUnits="userSpaceOnUse" />
    <linearGradient
       inkscape:collect="always"
       xlink:href="#linearGradient5893"
       id="linearGradient5909"
       x1="386.95358"
       y1="201.25259"
       x2="337.05447"
       y2="354.71594"
       gradientUnits="userSpaceOnUse" />
    <linearGradient
       inkscape:collect="always"
       xlink:href="#linearGradient5893"
       id="linearGradient5911"
       x1="386.95358"
       y1="201.25259"
       x2="337.05447"
       y2="354.71594"
       gradientUnits="userSpaceOnUse" />
    <linearGradient
       inkscape:collect="always"
       xlink:href="#linearGradient5893"
       id="linearGradient5913"
       x1="386.95358"
       y1="201.25259"
       x2="337.05447"
       y2="354.71594"
       gradientUnits="userSpaceOnUse" />
    <linearGradient
       inkscape:collect="always"
       xlink:href="#linearGradient5893"
       id="linearGradient5915"
       x1="386.95358"
       y1="201.25259"
       x2="337.05447"
       y2="354.71594"
       gradientUnits="userSpaceOnUse" />
    <linearGradient
       inkscape:collect="always"
       xlink:href="#linearGradient5893"
       id="linearGradient5917"
       x1="386.95358"
       y1="201.25259"
       x2="337.05447"
       y2="354.71594"
       gradientUnits="userSpaceOnUse" />
    <linearGradient
       inkscape:collect="always"
       xlink:href="#linearGradient5893"
       id="linearGradient5919"
       x1="386.95358"
       y1="201.25259"
       x2="337.05447"
       y2="354.71594"
       gradientUnits="userSpaceOnUse"
       gradientTransform="translate(-0.94149294,0)" />
    <linearGradient
       inkscape:collect="always"
       xlink:href="#linearGradient5893"
       id="linearGradient5921"
       x1="386.95358"
       y1="201.25259"
       x2="337.05447"
       y2="354.71594"
       gradientUnits="userSpaceOnUse" />
    <linearGradient
       inkscape:collect="always"
       xlink:href="#linearGradient5974"
       id="linearGradient5980"
       x1="428.40115"
       y1="316.39102"
       x2="405.10037"
       y2="393.61639"
       gradientUnits="userSpaceOnUse"
       gradientTransform="translate(-0.66573604,0.66573604)" />
    <linearGradient
       inkscape:collect="always"
       xlink:href="#linearGradient5974"
       id="linearGradient5982"
       x1="428.40115"
       y1="316.39102"
       x2="405.10037"
       y2="393.61639"
       gradientUnits="userSpaceOnUse"
       gradientTransform="translate(-0.66573604,0.66573604)" />
  </defs>
  <sodipodi:namedview
     id="base"
     pagecolor="#ffffff"
     bordercolor="#666666"
     borderopacity="1.0"
     inkscape:pageopacity="0.0"
     inkscape:pageshadow="2"
     inkscape:zoom="1.5020968"
     inkscape:cx="372.85134"
     inkscape:cy="604.33049"
     inkscape:document-units="px"
     inkscape:current-layer="svg5163"
     showgrid="false"
     inkscape:window-width="1920"
     inkscape:window-height="1017"
     inkscape:window-x="-8"
     inkscape:window-y="-8"
     inkscape:window-maximized="1" />
  <metadata
     id="metadata5168">
    <rdf:RDF>
      <cc:Work
         rdf:about="">
        <dc:format>image/svg+xml</dc:format>
        <dc:type
           rdf:resource="http://purl.org/dc/dcmitype/StillImage" />
        <dc:title></dc:title>
      </cc:Work>
    </rdf:RDF>
  </metadata>
  <g
     inkscape:groupmode="layer"
     id="layer6"
     inkscape:label="Layer 3">
    <path
       style="fill:#003800;fill-rule:evenodd;stroke:#000000;stroke-width:0.83171445px;stroke-linecap:butt;stroke-linejoin:miter;stroke-opacity:1;fill-opacity:1"
       d="m 417.46142,521.13354 16.65251,1.39922 0.87645,-170.00534 -13.58495,13.99221 -3.94401,155.31351 -24.10234,-4.19765 12.7085,-171.40455 14.89962,20.98831 1.44232,-35.84918 -16.31053,14.97906 16.31053,-15.31193 12.98185,21.96929 -14.42417,14.21276"
       id="path5946"
       inkscape:connector-curvature="0" />
    <path
       style="opacity:1;fill:#003800;fill-opacity:1;fill-rule:nonzero;stroke:#000000;stroke-width:0.41608503;stroke-miterlimit:4;stroke-dasharray:none;stroke-opacity:1"
       d="m 413.66631,355.95103 -6.74637,-9.47735 1.9398,-1.83078 c 1.06689,-1.00692 4.43463,-4.12065 7.48386,-6.91939 l 5.54406,-5.08862 -0.14884,1.59351 c -0.0819,0.87642 -0.38343,8.0345 -0.67016,15.90683 -0.28672,7.87233 -0.55162,14.53378 -0.58865,14.80323 -0.037,0.26946 -3.1032,-3.77489 -6.8137,-8.98743 z"
       id="path5954"
       inkscape:connector-curvature="0" />
    <path
       style="fill:url(#linearGradient5980);fill-opacity:1;fill-rule:evenodd;stroke:#000000;stroke-width:0.83171445px;stroke-linecap:butt;stroke-linejoin:miter;stroke-opacity:1"
       d="m 417.13364,521.02212 16.65251,1.39922 0.87645,-170.00534 -13.58495,13.99221 -3.94401,155.31351 -24.10234,-4.19765 12.7085,-171.40455 14.89962,20.98831 1.44232,-35.84918 -16.31053,14.97906 16.31053,-15.31193 12.98185,21.96929 -14.42417,14.21276"
       id="path5946-1"
       inkscape:connector-curvature="0" />
    <path
       style="opacity:1;fill:url(#linearGradient5982);fill-opacity:1;fill-rule:nonzero;stroke:#000000;stroke-width:0.41608503;stroke-miterlimit:4;stroke-dasharray:none;stroke-opacity:1"
       d="m 413.33853,355.83961 -6.74637,-9.47735 1.9398,-1.83078 c 1.06689,-1.00692 4.43463,-4.12065 7.48386,-6.91939 l 5.54406,-5.08862 -0.14884,1.59351 c -0.0819,0.87642 -0.38343,8.0345 -0.67016,15.90683 -0.28672,7.87233 -0.55162,14.53378 -0.58865,14.80323 -0.037,0.26946 -3.1032,-3.77489 -6.8137,-8.98743 z"
       id="path5954-3"
       inkscape:connector-curvature="0" />
  </g>
  <g
     inkscape:groupmode="layer"
     id="layer5"
     inkscape:label="Layer 2"
     sodipodi:insensitive="true"
     style="display:inline">
    <path
       style="fill:#800080;fill-opacity:1;fill-rule:evenodd;stroke:#000000;stroke-width:1px;stroke-linecap:butt;stroke-linejoin:miter;stroke-opacity:1"
       d="m 285.71429,420.93363 c 0,-5.71428 40,-144.28571 40,-144.28571 l 48.66853,-45.81139 19.90289,65.81139 -50,152.85714 z"
       id="path5737"
       inkscape:connector-curvature="0"
       sodipodi:nodetypes="cccccc" />
    <path
       style="fill:#800080;fill-opacity:1;fill-rule:evenodd;stroke:#000000;stroke-width:1px;stroke-linecap:butt;stroke-linejoin:miter;stroke-opacity:1"
       d="m 325.71429,276.64792 20,20 27.61439,10.56864 19.15403,-9.23717"
       id="path5739"
       inkscape:connector-curvature="0"
       sodipodi:nodetypes="cccc" />
    <path
       style="fill:#800080;fill-opacity:1;fill-rule:evenodd;stroke:#000000;stroke-width:1px;stroke-linecap:butt;stroke-linejoin:miter;stroke-opacity:1"
       d="m 373.42578,305.78798 1.62277,-73.99441"
       id="path5741"
       inkscape:connector-curvature="0"
       sodipodi:nodetypes="cc" />
    <path
       style="fill:#800080;fill-opacity:1;fill-rule:evenodd;stroke:#000000;stroke-width:1px;stroke-linecap:butt;stroke-linejoin:miter;stroke-opacity:1"
       d="m 348.57143,298.07649 25.71428,-68.57143"
       id="path5743"
       inkscape:connector-curvature="0" />
    <path
       style="fill:#800080;fill-opacity:1;fill-rule:evenodd;stroke:#000000;stroke-width:1px;stroke-linecap:butt;stroke-linejoin:miter;stroke-opacity:1"
       d="M 348.00279,297.50785 303.24554,421.12784"
       id="path5745"
       inkscape:connector-curvature="0"
       sodipodi:nodetypes="cc" />
    <path
       style="fill:#800080;fill-opacity:1;fill-rule:evenodd;stroke:#000000;stroke-width:1px;stroke-linecap:butt;stroke-linejoin:miter;stroke-opacity:1"
       d="M 373.52287,306.55082 332.85714,440.93363"
       id="path5747"
       inkscape:connector-curvature="0"
       sodipodi:nodetypes="cc" />
    <path
       style="opacity:1;fill:#800080;fill-opacity:1;fill-rule:nonzero;stroke:none;stroke-width:3.5;stroke-miterlimit:4;stroke-dasharray:none;stroke-opacity:1"
       d="m 311.53705,366.0622 c -4.76001,-2.54974 -8.75016,-4.72416 -8.86699,-4.83205 -0.11684,-0.10789 5.09695,-18.82464 11.5862,-41.59278 l 11.79864,-41.39662 9.71734,9.63503 c 5.34454,5.29927 10.05284,9.7433 10.46288,9.87563 0.45819,0.14787 -4.29694,14.14706 -12.33797,36.32315 -7.19592,19.8454 -13.22345,36.20427 -13.39451,36.35304 -0.17106,0.14877 -4.20557,-1.81565 -8.96559,-4.3654 z"
       id="path5749"
       inkscape:connector-curvature="0" />
    <path
       style="opacity:1;fill:#800080;fill-opacity:1;fill-rule:nonzero;stroke:none;stroke-width:3.5;stroke-miterlimit:4;stroke-dasharray:none;stroke-opacity:1"
       d="m 335.00425,378.6543 c -6.8654,-3.70683 -12.48255,-7.10525 -12.48255,-7.55204 0,-1.1602 25.31622,-70.9902 25.99921,-71.71392 0.46373,-0.49137 20.20827,6.5102 23.00158,8.15655 0.89186,0.52565 -22.35064,78.01563 -23.36996,77.9149 -0.36615,-0.0362 -6.28288,-3.09866 -13.14828,-6.80549 z"
       id="path5751"
       inkscape:connector-curvature="0" />
    <path
       style="opacity:1;fill:#800080;fill-opacity:1;fill-rule:nonzero;stroke:none;stroke-width:3.5;stroke-miterlimit:4;stroke-dasharray:none;stroke-opacity:1"
       d="m 355.97167,389.79441 c -3.01898,-1.6527 -5.50003,-3.21199 -5.51344,-3.46508 -0.0134,-0.25309 5.28428,-18.0414 11.77265,-39.52957 l 11.79703,-39.06941 9.0316,-4.30437 c 4.96738,-2.3674 9.123,-4.21748 9.23471,-4.11128 0.27029,0.25694 -29.85299,92.41243 -30.40435,93.01536 -0.23602,0.2581 -2.89921,-0.88294 -5.9182,-2.53565 z"
       id="path5753"
       inkscape:connector-curvature="0" />
    <path
       style="opacity:1;fill:#800080;fill-opacity:1;fill-rule:nonzero;stroke:none;stroke-width:3.5;stroke-miterlimit:4;stroke-dasharray:none;stroke-opacity:1"
       d="m 374.69502,282.51897 c 0.23872,-12.72681 0.62263,-27.74771 0.85313,-33.37978 l 0.4191,-10.24013 8.55042,28.215 c 7.78066,25.67492 9.36206,31.557 8.16126,30.3562 -0.22594,-0.22594 -3.29665,1.03716 -6.8238,2.80688 -3.52715,1.76971 -7.57876,3.70452 -9.00358,4.29958 l -2.59057,1.08191 0.43404,-23.13966 z"
       id="path5755"
       inkscape:connector-curvature="0" />
    <path
       style="opacity:1;fill:#800080;fill-opacity:1;fill-rule:nonzero;stroke:none;stroke-width:3.5;stroke-miterlimit:4;stroke-dasharray:none;stroke-opacity:1"
       d="m 360.46865,301.49557 c -5.6754,-2.20674 -10.39442,-4.07318 -10.48671,-4.14763 -0.23852,-0.19241 23.12516,-62.39165 23.88966,-63.59946 0.41708,-0.65896 0.51592,0.58643 0.2906,3.66154 -0.18781,2.56309 -0.50556,15.89445 -0.7061,29.62526 -0.43594,29.8475 -0.87298,38.63971 -1.91589,38.54262 -0.41396,-0.0385 -5.39616,-1.87558 -11.07156,-4.08233 z"
       id="path5757"
       inkscape:connector-curvature="0" />
    <path
       style="opacity:1;fill:#800080;fill-opacity:1;fill-rule:nonzero;stroke:none;stroke-width:3.5;stroke-miterlimit:4;stroke-dasharray:none;stroke-opacity:1"
       d="m 337.49497,286.96188 -10.43681,-10.36439 22.03114,-20.79127 c 12.11712,-11.4352 22.03113,-20.67455 22.03113,-20.53188 0,0.14266 -5.21745,14.16271 -11.59432,31.15566 l -11.59432,30.89627 -10.43682,-10.36439 z"
       id="path5759"
       inkscape:connector-curvature="0" />
    <path
       style="fill:url(#linearGradient5899);fill-opacity:1;fill-rule:evenodd;stroke:none;stroke-width:1px;stroke-linecap:butt;stroke-linejoin:miter;stroke-opacity:1"
       d="m 285.58117,420.81786 c 0,-5.71428 40,-144.28571 40,-144.28571 l 48.66853,-45.81139 19.90289,65.81139 -50,152.85714 z"
       id="path5737-4"
       inkscape:connector-curvature="0"
       sodipodi:nodetypes="cccccc" />
    <path
       style="fill:url(#linearGradient5901);fill-opacity:1;fill-rule:evenodd;stroke:none;stroke-width:1px;stroke-linecap:butt;stroke-linejoin:miter;stroke-opacity:1"
       d="m 325.58117,276.53215 20,20 27.61439,10.56864 19.15403,-9.23717"
       id="path5739-2"
       inkscape:connector-curvature="0"
       sodipodi:nodetypes="cccc" />
    <path
       style="fill:url(#linearGradient5903);fill-opacity:1;fill-rule:evenodd;stroke:none;stroke-width:1px;stroke-linecap:butt;stroke-linejoin:miter;stroke-opacity:1"
       d="m 373.29266,305.67221 1.62277,-73.99441"
       id="path5741-0"
       inkscape:connector-curvature="0"
       sodipodi:nodetypes="cc" />
    <path
       style="fill:url(#linearGradient5905);fill-opacity:1;fill-rule:evenodd;stroke:none;stroke-width:1px;stroke-linecap:butt;stroke-linejoin:miter;stroke-opacity:1"
       d="m 348.43831,297.96072 25.71428,-68.57143"
       id="path5743-5"
       inkscape:connector-curvature="0" />
    <path
       style="fill:url(#linearGradient5907);fill-opacity:1;fill-rule:evenodd;stroke:none;stroke-width:1px;stroke-linecap:butt;stroke-linejoin:miter;stroke-opacity:1"
       d="M 347.86967,297.39208 303.11242,421.01207"
       id="path5745-6"
       inkscape:connector-curvature="0"
       sodipodi:nodetypes="cc" />
    <path
       style="fill:url(#linearGradient5909);fill-opacity:1;fill-rule:evenodd;stroke:none;stroke-width:1px;stroke-linecap:butt;stroke-linejoin:miter;stroke-opacity:1"
       d="M 373.38975,306.43505 332.72402,440.81786"
       id="path5747-6"
       inkscape:connector-curvature="0"
       sodipodi:nodetypes="cc" />
    <path
       style="opacity:1;fill:url(#linearGradient5911);fill-opacity:1;fill-rule:nonzero;stroke:none;stroke-width:3.5;stroke-miterlimit:4;stroke-dasharray:none;stroke-opacity:1"
       d="m 311.40393,365.94643 c -4.76001,-2.54974 -8.75016,-4.72416 -8.86699,-4.83205 -0.11684,-0.10789 5.09695,-18.82464 11.5862,-41.59278 l 11.79864,-41.39662 9.71734,9.63503 c 5.34454,5.29927 10.05284,9.7433 10.46288,9.87563 0.45819,0.14787 -4.29694,14.14706 -12.33797,36.32315 -7.19592,19.8454 -13.22345,36.20427 -13.39451,36.35304 -0.17106,0.14877 -4.20557,-1.81565 -8.96559,-4.3654 z"
       id="path5749-4"
       inkscape:connector-curvature="0" />
    <path
       style="opacity:1;fill:url(#linearGradient5913);fill-opacity:1;fill-rule:nonzero;stroke:none;stroke-width:3.5;stroke-miterlimit:4;stroke-dasharray:none;stroke-opacity:1"
       d="m 334.87113,378.53853 c -6.8654,-3.70683 -12.48255,-7.10525 -12.48255,-7.55204 0,-1.1602 25.31622,-70.9902 25.99921,-71.71392 0.46373,-0.49137 20.20827,6.5102 23.00158,8.15655 0.89186,0.52565 -22.35064,78.01563 -23.36996,77.9149 -0.36615,-0.0362 -6.28288,-3.09866 -13.14828,-6.80549 z"
       id="path5751-4"
       inkscape:connector-curvature="0" />
    <path
       style="opacity:1;fill:url(#linearGradient5915);fill-opacity:1;fill-rule:nonzero;stroke:none;stroke-width:3.5;stroke-miterlimit:4;stroke-dasharray:none;stroke-opacity:1"
       d="m 355.83855,389.67864 c -3.01898,-1.6527 -5.50003,-3.21199 -5.51344,-3.46508 -0.0134,-0.25309 5.28428,-18.0414 11.77265,-39.52957 l 11.79703,-39.06941 9.0316,-4.30437 c 4.96738,-2.3674 9.123,-4.21748 9.23471,-4.11128 0.27029,0.25694 -29.85299,92.41243 -30.40435,93.01536 -0.23602,0.2581 -2.89921,-0.88294 -5.9182,-2.53565 z"
       id="path5753-5"
       inkscape:connector-curvature="0" />
    <path
       style="opacity:1;fill:url(#linearGradient5917);fill-opacity:1;fill-rule:nonzero;stroke:none;stroke-width:3.5;stroke-miterlimit:4;stroke-dasharray:none;stroke-opacity:1"
       d="m 374.5619,282.4032 c 0.23872,-12.72681 0.62263,-27.74771 0.85313,-33.37978 l 0.4191,-10.24013 8.55042,28.215 c 7.78066,25.67492 9.36206,31.557 8.16126,30.3562 -0.22594,-0.22594 -3.29665,1.03716 -6.8238,2.80688 -3.52715,1.76971 -7.57876,3.70452 -9.00358,4.29958 l -2.59057,1.08191 0.43404,-23.13966 z"
       id="path5755-0"
       inkscape:connector-curvature="0" />
    <path
       style="opacity:1;fill:url(#linearGradient5919);fill-opacity:1;fill-rule:nonzero;stroke:none;stroke-width:3.5;stroke-miterlimit:4;stroke-dasharray:none;stroke-opacity:1"
       d="m 359.39404,301.3798 c -5.6754,-2.20674 -10.39442,-4.07318 -10.48671,-4.14763 -0.23852,-0.19241 23.12516,-62.39165 23.88966,-63.59946 0.41708,-0.65896 0.51592,0.58643 0.2906,3.66154 -0.18781,2.56309 -0.50556,15.89445 -0.7061,29.62526 -0.43594,29.8475 -0.87298,38.63971 -1.91589,38.54262 -0.41396,-0.0385 -5.39616,-1.87558 -11.07156,-4.08233 z"
       id="path5757-4"
       inkscape:connector-curvature="0" />
    <path
       style="opacity:1;fill:url(#linearGradient5921);fill-opacity:1;fill-rule:nonzero;stroke:none;stroke-width:3.5;stroke-miterlimit:4;stroke-dasharray:none;stroke-opacity:1"
       d="m 337.36185,286.84611 -10.43681,-10.36439 22.03114,-20.79127 c 12.11712,-11.4352 22.03113,-20.67455 22.03113,-20.53188 0,0.14266 -5.21745,14.16271 -11.59432,31.15566 l -11.59432,30.89627 -10.43682,-10.36439 z"
       id="path5759-8"
       inkscape:connector-curvature="0" />
  </g>
  <g
     inkscape:label="Layer 1"
     inkscape:groupmode="layer"
     id="layer1"
     sodipodi:insensitive="true"
     style="display:inline">
    <path
       style="fill:#2b1100;fill-opacity:1;fill-rule:evenodd;stroke:none;stroke-width:1px;stroke-linecap:butt;stroke-linejoin:miter;stroke-opacity:1"
       d="m 242.85714,610.93363 -105.71428,-80 45.71428,-84.28571 65.71429,-18.57143 40,-72.85714 107.14286,57.14285 95.71428,-34.28571 50,117.14286 -74.28571,47.14285 45.71428,71.42858 -84.28571,32.85714 L 400,595.21935 l -62.85714,65.71428 -70,-51.42857 z"
       id="path5711"
       inkscape:connector-curvature="0"
       sodipodi:nodetypes="ccccccccccccccc" />
    <path
       style="fill:url(#linearGradient5734);fill-opacity:1;fill-rule:evenodd;stroke:none;stroke-width:1px;stroke-linecap:butt;stroke-linejoin:miter;stroke-opacity:1"
       d="m 245,610.93363 -105.71428,-80 L 185,446.64792 l 65.71429,-18.57143 40,-72.85714 107.14286,57.14285 95.71428,-34.28571 50,117.14286 -74.28571,47.14285 45.71428,71.42858 -84.28571,32.85714 -28.57143,-51.42857 -62.85714,65.71428 -70,-51.42857 z"
       id="path5711-7"
       inkscape:connector-curvature="0"
       sodipodi:nodetypes="ccccccccccccccc" />
  </g>
</svg>
